{
.appVersion = "3058";
.formatVersion = 3;
axes = (
{
name = Weight;
tag = wght;
}
);
customParameters = (
{
name = "Variable Font Origin";
value = m01;
},
{
name = "Use Typo Metrics";
value = 1;
}
);
date = "2021-05-10 22:39:37 +0000";
familyName = "Mekorot Rashi";
fontMaster = (
{
axesValues = (
400
);
id = m01;
metricValues = (
{
over = 16;
pos = 800;
},
{
over = -16;
},
{
over = -16;
pos = -200;
},
{
},
{
}
);
name = Regular;
}
);
glyphs = (
{
color = 5;
glyphname = "alef-hb";
lastChange = "2021-05-17 22:08:15 +0000";
layers = (
{
anchors = (
{
name = bottom;
pos = (245,0);
},
{
name = bottomleft;
pos = (15,0);
},
{
name = center;
pos = (285,324);
},
{
name = top;
pos = (367,800);
},
{
name = topleft;
pos = (7,604);
}
);
layerId = m01;
shapes = (
{
closed = 1;
nodes = (
(70,-29,o),
(62,-8,o),
(62,11,cs),
(62,40,o),
(67,76,o),
(67,105,cs),
(67,146,o),
(60,219,o),
(60,261,cs),
(60,402,o),
(118,450,o),
(118,457,cs),
(118,462,o),
(113,465,o),
(95,467,cs),
(74,469,o),
(56,478,o),
(47,490,cs),
(39,500,o),
(32,545,o),
(32.2,560,cs),
(33,588,o),
(34,637,o),
(70,637,cs),
(80,637,o),
(90,635,o),
(99,635,cs),
(105,635,o),
(109,640,o),
(109,649,cs),
(109,714,o),
(158,833,o),
(187,862,cs),
(211,886,o),
(237,888,o),
(260,888,cs),
(295,888,o),
(336,870,o),
(336,833,cs),
(336,787,o),
(255,744,o),
(229,724,cs),
(181,687,o),
(158,655,o),
(158.2,634.9,cs),
(158,631,o),
(161,629,o),
(165.2,629.3,cs),
(199,629,o),
(250,636,o),
(284.9,636.3,cs),
(467,636,o),
(501,478,o),
(501,362,cs),
(501,245,o),
(430,24,o),
(325.5,22.4,cs),
(293,22,o),
(274,35,o),
(274,64,cs),
(274,120,o),
(442,188,o),
(442,309,cs),
(442,419,o),
(402,466,o),
(256,466,cs),
(230,466,o),
(200,462,o),
(191,459,cs),
(175,454,o),
(137,400,o),
(137,364,cs),
(138,299,o),
(189,192,o),
(189,86.1,cs),
(189,76.3,o),
(188.3,67.2,o),
(186.2,59.5,cs),
(182.7,46.9,o),
(172.2,33.6,o),
(164.5,23.1,cs),
(156.8,13.3,o),
(148.4,2.8,o),
(139.3,-5.6,cs),
(132.3,-11.2,o),
(125.3,-16.1,o),
(117.6,-20.3,cs),
(109.9,-23.8,o),
(98.7,-29.4,o),
(88.9,-29.4,cs)
);
}
);
width = 541;
},
{
anchors = (
{
name = bottom;
pos = (245,0);
},
{
name = bottomleft;
pos = (15,0);
},
{
name = center;
pos = (270,315);
},
{
name = top;
pos = (367,800);
},
{
name = topleft;
pos = (-3,604);
}
);
associatedMasterId = m01;
layerId = "734705CE-74CD-4122-9B6A-9A0CB9172F62";
name = "May 11, 21, 16:46";
shapes = (
{
closed = 1;
nodes = (
(107.8,694.4,o),
(128.8,758.1,o),
(155.4,810.6,cs),
(163.8,828.1,o),
(173.6,851.9,o),
(188.3,865.2,cs),
(205.1,879.9,o),
(233.8,888.3,o),
(260.4,888.3,cs),
(279.3,888.3,o),
(297.5,884.1,o),
(310.1,875,cs),
(322.7,865.9,o),
(332.5,858.9,o),
(335.3,842.8,c),
(335.3,839.3,o),
(336,835.8,o),
(336,833,cs),
(336,800.8,o),
(310.1,780.5,o),
(284.9,763,cs),
(255.5,742.7,o),
(224,721.7,o),
(198.1,695.8,cs),
(184.8,682.5,o),
(172.9,667.1,o),
(163.8,649.6,cs),
(162.4,646.1,o),
(158.2,639.8,o),
(158.2,634.9,cs),
(158.2,634.2,o),
(158.2,632.8,o),
(158.9,632.1,cs),
(160.3,630,o),
(162.4,629.3,o),
(165.2,629.3,cs),
(168.7,629.3,o),
(172.2,630,o),
(175,630,cs),
(191.8,630,o),
(207.9,630.7,o),
(224.7,632.8,cs),
(243.6,634.9,o),
(263.9,636.3,o),
(284.9,636.3,cs),
(323.4,636.3,o),
(363.3,630.7,o),
(395.5,613.9,cs),
(450.1,585.9,o),
(476,520.8,o),
(488.6,463.4,cs),
(496.3,428.4,o),
(500.5,391.3,o),
(500.5,353.5,cs),
(500.5,254.1,o),
(472.5,151.9,o),
(411.6,77,cs),
(392,52.5,o),
(365.4,26.6,o),
(332.5,22.4,cs),
(330.4,22.4,o),
(327.6,22.4,o),
(325.5,22.4,cs),
(310.8,22.4,o),
(293.3,26.6,o),
(284.2,36.4,cs),
(277.2,42.7,o),
(274.4,57.4,o),
(274.4,69.3,cs),
(274.4,74.2,o),
(274.4,78.4,o),
(275.8,81.9,cs),
(278.6,91,o),
(287,93.8,o),
(294.7,98.7,cs),
(306.6,105.7,o),
(318.5,113.4,o),
(329.7,121.8,cs),
(364,147.7,o),
(393.4,179.2,o),
(413.7,217,cs),
(432.6,251.3,o),
(442.4,290.5,o),
(442.4,329,cs),
(442.4,341.6,o),
(441.7,353.5,o),
(439.6,365.4,cs),
(434.7,395.5,o),
(421.4,424.9,o),
(395.5,442.4,cs),
(365.4,463.4,o),
(331.1,466.2,o),
(296.1,466.2,cs),
(287.7,466.2,o),
(278.6,465.5,o),
(270.2,465.5,cs),
(249.9,465.5,o),
(230.3,465.5,o),
(210,464.1,cs),
(208.6,464.1,o),
(207.9,464.1,o),
(206.5,464.1,cs),
(204.4,464.1,o),
(202.3,464.1,o),
(200.2,464.1,cs),
(196.7,464.1,o),
(193.2,463.4,o),
(190.4,462,cs),
(182.7,458.5,o),
(175.7,443.1,o),
(170.8,436.8,cs),
(155.4,417.2,o),
(138.6,393.4,o),
(137.2,368.2,cs),
(137.2,367.5,o),
(137.2,366.1,o),
(137.2,364.7,cs),
(137.2,351.4,o),
(141.4,337.4,o),
(144.2,324.8,cs),
(157.5,264.6,o),
(174.3,204.4,o),
(182.7,142.8,cs),
(185.5,126,o),
(189,105,o),
(189,86.1,cs),
(189,76.3,o),
(188.3,67.2,o),
(186.2,59.5,cs),
(182.7,46.9,o),
(172.2,33.6,o),
(164.5,23.1,cs),
(156.8,13.3,o),
(148.4,2.8,o),
(139.3,-5.6,cs),
(132.3,-11.2,o),
(125.3,-16.1,o),
(117.6,-20.3,cs),
(109.9,-23.8,o),
(98.7,-29.4,o),
(88.9,-29.4,cs),
(84,-29.4,o),
(80.5,-28,o),
(77,-25.9,c),
(68.6,-18.9,o),
(65.8,0.7,o),
(65.8,10.5,cs),
(65.8,39.9,o),
(64.4,69.3,o),
(64.4,98,cs),
(64.4,144.9,o),
(63,191.8,o),
(62.3,238,cs),
(62.3,243.6,o),
(62.3,249.9,o),
(62.3,255.5,cs),
(62.3,296.8,o),
(64.4,336.7,o),
(76.3,377.3,cs),
(82.6,398.3,o),
(91.7,417.9,o),
(103.6,436.8,cs),
(109.2,445.9,o),
(119,454.3,o),
(123.2,463.4,c),
(102.2,464.1,o),
(67.2,469.7,o),
(51.8,485.1,cs),
(43.4,493.5,o),
(40.6,505.4,o),
(37.8,516.6,cs),
(33.6,530.6,o),
(32.2,545.3,o),
(32.2,560,cs),
(32.2,571.2,o),
(32.9,583.1,o),
(35,594.3,cs),
(37.1,605.5,o),
(39.2,620.9,o),
(48.3,628.6,cs),
(56,634.9,o),
(67.2,636.3,o),
(79.1,636.3,cs),
(88.9,636.3,o),
(99.4,634.9,o),
(107.8,634.9,c)
);
}
);
width = 541;
}
);
unicode = 1488;
},
{
color = 5;
glyphname = "bet-hb";
lastChange = "2021-05-17 22:08:15 +0000";
layers = (
{
anchors = (
{
name = center;
pos = (130,335);
}
);
layerId = m01;
shapes = (
{
closed = 1;
nodes = (
(34,-27,o),
(25,-20,o),
(25,27,cs),
(25,108,o),
(41,141,o),
(72,141,cs),
(219,141,o),
(347,147,o),
(347,196,cs),
(347,252,o),
(245,298,o),
(245,322,cs),
(245,361,o),
(292,431,o),
(292,467,cs),
(292,474,o),
(289,480,o),
(255,480,cs),
(204,480,o),
(191,473,o),
(149,473,cs),
(85,473,o),
(52,488,o),
(52,556,cs),
(52,597,o),
(58,624,o),
(58,665,cs),
(58,687,o),
(66,699,o),
(104,699,cs),
(111,699,o),
(113,695,o),
(115,684,cs),
(119,663,o),
(141,638,o),
(180,638,cs),
(195,638,o),
(321,640,o),
(376,640,cs),
(392,640,o),
(400,634,o),
(400,624,cs),
(400,582,o),
(351,483,o),
(351,457,cs),
(351,432,o),
(426,338,o),
(426,254,cs),
(426,98,o),
(242,-27,o),
(66,-27,cs)
);
}
);
width = 465;
},
{
anchors = (
{
name = center;
pos = (150,315);
}
);
associatedMasterId = m01;
layerId = "CB7A08CF-58C0-4938-A993-D86D5D5DC970";
name = "May 11, 21, 17:13";
shapes = (
{
closed = 1;
nodes = (
(277.2,478.1,o),
(259,480.2,o),
(241.5,480.2,cs),
(230.3,480.2,o),
(219.8,479.5,o),
(209.3,478.1,cs),
(197.4,476.7,o),
(186.2,473.2,o),
(174.3,472.5,cs),
(172.9,472.5,o),
(170.8,472.5,o),
(169.4,472.5,cs),
(155.4,472.5,o),
(141.4,475.3,o),
(127.4,477.4,cs),
(110.6,479.5,o),
(91.7,476,o),
(77.7,487.2,cs),
(57.4,504,o),
(51.8,529.9,o),
(51.8,557.2,cs),
(51.8,584.5,o),
(57.4,612.5,o),
(58.1,634.9,cs),
(58.8,651.7,o),
(56,679.7,o),
(69.3,693,cs),
(74.2,697.9,o),
(82.6,699.3,o),
(91.7,699.3,cs),
(99.4,699.3,o),
(107.8,697.9,o),
(113.4,697.9,c),
(114.8,663.6,o),
(142.1,642.6,o),
(174.3,638.4,cs),
(187.6,637,o),
(201.6,637,o),
(215.6,637,cs),
(236.6,637,ls),
(241.5,637,o),
(246.4,637,o),
(252,637,cs),
(301,635.6,o),
(350,634.9,o),
(399.7,634.9,c),
(396.9,597.8,o),
(385.7,558.6,o),
(372.4,524.3,cs),
(366.8,510.3,o),
(363.3,496.3,o),
(358.4,482.3,cs),
(356.3,475.3,o),
(351.4,466.2,o),
(351.4,458.5,cs),
(351.4,457.8,o),
(351.4,457.8,o),
(351.4,457.1,cs),
(352.8,445.2,o),
(364,431.9,o),
(368.9,420.7,cs),
(382.2,392.7,o),
(396.9,365.4,o),
(408.8,336.7,cs),
(419.3,310.8,o),
(425.6,282.1,o),
(425.6,254.1,cs),
(425.6,236.6,o),
(423.5,219.1,o),
(418.6,203,cs),
(409.5,170.8,o),
(388.5,137.9,o),
(368.2,110.6,cs),
(310.8,34.3,o),
(215.6,-8.4,o),
(122.5,-21.7,cs),
(106.4,-23.8,o),
(87.5,-27.3,o),
(70,-27.3,cs),
(63.7,-27.3,o),
(57.4,-26.6,o),
(51.8,-25.9,cs),
(43.4,-23.8,o),
(31.5,-21.7,o),
(28.7,-12.6,cs),
(25.9,-0.7,o),
(24.5,13.3,o),
(24.5,27.3,cs),
(24.5,35.7,o),
(25.2,44.1,o),
(25.9,51.8,cs),
(29.4,77.7,o),
(30.1,120.4,o),
(53.2,137.9,cs),
(58.8,141.4,o),
(65.8,140.7,o),
(72.1,140.7,cs),
(83.3,141.4,o),
(95.2,140.7,o),
(105.7,142.1,cs),
(114.1,143.5,o),
(122.5,143.5,o),
(130.9,143.5,cs),
(142.8,143.5,o),
(154.7,142.8,o),
(166.6,142.8,cs),
(205.1,142.8,o),
(246.4,143.5,o),
(284.9,153.3,cs),
(301,157.5,o),
(332.5,163.8,o),
(341.6,179.2,cs),
(345.1,184.8,o),
(346.5,190.4,o),
(346.5,196,cs),
(346.5,205.8,o),
(343,215.6,o),
(337.4,224.7,cs),
(322,252.7,o),
(296.8,273,o),
(272.3,293.3,cs),
(265.3,298.9,o),
(248.5,308,o),
(245.7,317.1,cs),
(245,317.8,o),
(245,319.2,o),
(245,320.6,cs),
(245,324.1,o),
(246.4,327.6,o),
(246.4,330.4,cs),
(248.5,343,o),
(250.6,355.6,o),
(255.5,367.5,cs),
(269.5,401.8,o),
(286.3,436.8,o),
(293.3,473.2,c)
);
}
);
width = 465;
}
);
unicode = 1489;
},
{
color = 5;
glyphname = "gimel-hb";
lastChange = "2021-05-17 22:08:15 +0000";
layers = (
{
anchors = (
{
name = center;
pos = (150,315);
}
);
layerId = m01;
shapes = (
{
closed = 1;
nodes = (
(299,147,o),
(301,152,o),
(301,157,cs),
(301,214,o),
(291,329,o),
(255,397,cs),
(205,490,o),
(113,485,o),
(113,528,cs),
(113,570,o),
(151,662,o),
(193,662,cs),
(259,662,o),
(319,602,o),
(335,552,cs),
(369,445,o),
(358,206,o),
(358,32,cs),
(358,1,o),
(346,-7,o),
(311,-7,cs),
(304,-7,o),
(299,-5,o),
(299,0,cs),
(299,32,o),
(302,65,o),
(302,79,cs),
(302,100,o),
(289,108,o),
(263,108,cs),
(190,108,o),
(200,-15,o),
(98,-15,cs),
(58,-15,o),
(-6,8,o),
(-6,45,cs),
(-6,56,o),
(39,56,o),
(54,111,cs),
(65,150,o),
(91,195,o),
(156,195,cs),
(225,195,o),
(286,147,o),
(294,147,cs)
);
}
);
width = 426;
},
{
anchors = (
{
name = center;
pos = (150,315);
}
);
associatedMasterId = m01;
layerId = "610DDF41-CC7E-4C90-905C-C8356B140EDD";
name = "May 12, 21, 05:38";
shapes = (
{
closed = 1;
nodes = (
(300,154,o),
(301,165,o),
(301,175,cs),
(301,192,o),
(298,208,o),
(297,225,cs),
(290,296,o),
(279,384,o),
(227,437,cs),
(210,454,o),
(190,470,o),
(168,480,cs),
(150,489,o),
(123,495,o),
(116,517,cs),
(114,520,o),
(113,524,o),
(113,528,cs),
(113,535,o),
(115,542,o),
(116,548,cs),
(120,580,o),
(132,610,o),
(153,635,cs),
(160,643,o),
(172,659,o),
(183,661,cs),
(187,662,o),
(190,662,o),
(193,662,cs),
(239,662,o),
(280,623,o),
(310,592,cs),
(349,552,o),
(354,485,o),
(355,433,cs),
(357,333,o),
(358,232,o),
(358,132,cs),
(358,32,ls),
(358,22,o),
(355,1,o),
(345,-5,c),
(343,-7,o),
(340,-7,o),
(337,-7,cs),
(335,-7,o),
(333,-7,o),
(332,-7,cs),
(300,-7,l),
(300,57,ls),
(300,63,o),
(301,70,o),
(301,76,cs),
(301,81,o),
(301,84,o),
(300,88,cs),
(295,102,o),
(280,108,o),
(264,108,cs),
(250,108,o),
(235,103,o),
(227,96,cs),
(195,69,o),
(187,21,o),
(150,-1,cs),
(134,-11,o),
(116,-15,o),
(98,-15,cs),
(76,-15,o),
(53,-9,o),
(33,1,cs),
(15,12,o),
(-2,23,o),
(-6,45,c),
(17,53,o),
(37,68,o),
(47,90,cs),
(57,113,o),
(55,136,o),
(72,155,cs),
(80,164,o),
(88,172,o),
(97,178,cs),
(116,190,o),
(136,195,o),
(156,195,cs),
(205,195,o),
(256,167,o),
(297,143,c)
);
}
);
width = 426;
}
);
unicode = 1490;
},
{
color = 5;
glyphname = "dalet-hb";
lastChange = "2021-05-17 22:08:15 +0000";
layers = (
{
anchors = (
{
name = center;
pos = (182,348);
}
);
layerId = m01;
shapes = (
{
closed = 1;
nodes = (
(258,-29,o),
(199,37,o),
(199,71,cs),
(199,156,o),
(371,380,o),
(371,459.9,cs),
(371,470,o),
(363,476,o),
(347,476,cs),
(276,476,o),
(155,464,o),
(123,464,cs),
(66,464,o),
(28,480,o),
(28,545,cs),
(28,600,o),
(41,673,o),
(44,683,cs),
(46,690,o),
(53,694,o),
(65,694,cs),
(79,694,o),
(90,690,o),
(93,680,cs),
(99,660,o),
(109,634,o),
(164.5,633.5,cs),
(177,633,o),
(415,639,o),
(448,639,cs),
(470,639,o),
(479,620,o),
(478.8,585.2,cs),
(479,515,o),
(426,502,o),
(426,470,cs),
(426,457,o),
(430,441,o),
(430,429,cs),
(430,349,o),
(348,-29,o),
(302,-29,cs)
);
}
);
width = 501;
},
{
anchors = (
{
name = center;
pos = (186,348);
}
);
associatedMasterId = m01;
layerId = "C5009804-811E-4614-81CC-9BC809BD5068";
name = "May 12, 21, 07:29";
shapes = (
{
closed = 1;
nodes = (
(88.2,694.4,l),
(92.4,674.8,o),
(104.3,648.2,o),
(123.2,639.8,cs),
(135.8,634.9,o),
(149.8,633.5,o),
(164.5,633.5,cs),
(179.2,633.5,o),
(193.2,634.9,o),
(205.8,634.9,cs),
(374.5,634.9,l),
(443.1,634.9,ls),
(447.3,634.9,o),
(450.8,634.9,o),
(453.6,634.9,cs),
(461.3,634.9,o),
(467.6,633.5,o),
(471.1,624.4,cs),
(476,611.8,o),
(478.8,598.5,o),
(478.8,585.2,cs),
(478.8,560,o),
(470.4,534.8,o),
(456.4,514.5,cs),
(447.3,501.2,o),
(431.2,497,o),
(427.7,480.2,cs),
(426.3,476,o),
(426.3,471.8,o),
(426.3,466.9,cs),
(426.3,454.3,o),
(429.1,441,o),
(429.1,429.1,cs),
(429.1,428.4,o),
(429.1,427.7,o),
(428.4,427,c),
(428.4,400.4,o),
(423.5,373.1,o),
(418.6,347.2,cs),
(404.6,264.6,o),
(376.6,184.1,o),
(359.8,102.2,cs),
(354.2,73.5,o),
(345.8,44.8,o),
(336.7,17.5,cs),
(333.2,6.3,o),
(329.7,-9.1,o),
(322,-18.2,cs),
(316.4,-25.2,o),
(303.8,-28.7,o),
(292.6,-28.7,cs),
(287,-28.7,o),
(282.8,-28,o),
(279.3,-26.6,cs),
(269.5,-22.4,o),
(261.1,-14.7,o),
(253.4,-8.4,cs),
(231,10.5,o),
(199,39,o),
(199,71,cs),
(199,71,o),
(198.8,71.4,o),
(198.8,72.1,cs),
(199.5,112.7,o),
(223,152,o),
(241.5,186.9,cs),
(332.5,359.8,ls),
(346.5,386.4,o),
(370.3,416.5,o),
(370.3,447.3,cs),
(370.3,450.8,o),
(371,455,o),
(371,459.9,cs),
(371,462.7,o),
(371,465.5,o),
(369.6,467.6,cs),
(367.5,472.5,o),
(354.9,471.8,o),
(350,472.5,cs),
(336.7,473.9,o),
(321.3,475.3,o),
(307.3,475.3,cs),
(299.6,475.3,o),
(291.9,474.6,o),
(284.9,473.9,cs),
(272.3,472.5,o),
(259,473.2,o),
(245.7,472.5,cs),
(211.4,470.4,o),
(177.1,468.3,o),
(142.8,466.9,cs),
(136.5,466.2,o),
(130.2,466.2,o),
(123.2,466.2,cs),
(98.7,466.2,o),
(72.1,469,o),
(52.5,483,cs),
(33.6,496.3,o),
(30.8,524.3,o),
(30.1,545.3,cs),
(30.1,550.2,o),
(30.1,555.1,o),
(30.1,559.3,cs),
(30.1,604.8,o),
(39.2,648.9,o),
(44.8,694.4,c)
);
}
);
width = 501;
}
);
unicode = 1491;
},
{
color = 5;
glyphname = "he-hb";
lastChange = "2021-05-17 22:08:15 +0000";
layers = (
{
anchors = (
{
name = center;
pos = (309,328);
}
);
layerId = m01;
shapes = (
{
closed = 1;
nodes = (
(133,-29,o),
(57,128,o),
(57,269,cs),
(57,300,o),
(62,338,o),
(64,345,cs),
(66,352,o),
(70,355,o),
(87,355,cs),
(102,355,o),
(105,352,o),
(106,347,cs),
(116,269,o),
(159,199,o),
(218,181,cs),
(312,152,o),
(321,139,o),
(321,68,cs),
(321,-6,o),
(314,-29,o),
(274,-29,cs)
);
},
{
closed = 1;
nodes = (
(446,105,o),
(422,119,o),
(422,145,cs),
(422,191,o),
(483,222,o),
(483,324,cs),
(483,435,o),
(396,468,o),
(283,468,cs),
(265,468,o),
(170,462,o),
(144,462,cs),
(47,462,o),
(46,520,o),
(46,568,cs),
(46,612,o),
(63,682,o),
(64,685,cs),
(67,692,o),
(75,691,o),
(90,692,cs),
(97,692,o),
(104,691,o),
(109,686,cs),
(116,680,o),
(113,671,o),
(118,664,cs),
(138,631,o),
(172,628,o),
(208,628,cs),
(242,628,o),
(281,634,o),
(316,634,cs),
(483,634,o),
(538,495,o),
(538,333,cs),
(538,265,o),
(519,105,o),
(475,105,cs)
);
}
);
width = 580;
},
{
anchors = (
{
name = center;
pos = (309,328);
}
);
associatedMasterId = m01;
layerId = "74F27FE5-9453-418B-BDFF-7F1DAEED82F7";
name = "May 12, 21, 07:46";
shapes = (
{
closed = 1;
nodes = (
(109.2,304.5,o),
(128.1,248.5,o),
(165.2,214.2,cs),
(179.9,200.2,o),
(200.2,190.4,o),
(217.7,181.3,cs),
(245.7,166.6,o),
(287,165.2,o),
(308.7,140,cs),
(317.8,129.5,o),
(317.8,116.2,o),
(319.2,102.9,cs),
(319.9,88.2,o),
(320.6,72.8,o),
(320.6,58.1,cs),
(320.6,42,o),
(319.9,26.6,o),
(316.4,11.9,cs),
(314.3,0.7,o),
(310.8,-17.5,o),
(301,-24.5,cs),
(296.1,-28,o),
(288.4,-28,o),
(282.8,-28.7,cs),
(278.6,-28.7,o),
(273.7,-29.4,o),
(269.5,-29.4,cs),
(254.8,-29.4,o),
(240.1,-26.6,o),
(226.8,-21.7,cs),
(198.8,-11.2,o),
(168.7,4.9,o),
(147,25.2,cs),
(91.7,76.3,o),
(65.8,154,o),
(58.8,226.8,cs),
(58.1,240.8,o),
(57.4,254.8,o),
(57.4,268.8,cs),
(57.4,287.7,o),
(58.1,305.9,o),
(60.9,323.4,cs),
(61.6,330.4,o),
(61.6,350,o),
(66.5,354.2,c),
(67.9,354.9,o),
(70,354.9,o),
(72.1,354.9,cs),
(74.2,354.9,o),
(76.3,354.9,o),
(77.7,354.9,cs),
(105,354.9,l)
);
},
{
closed = 1;
nodes = (
(69.3,692.3,o),
(74.9,691.6,o),
(77.7,691.6,cs),
(81.2,691.6,o),
(85.4,691.6,o),
(89.6,691.6,cs),
(96.6,691.6,o),
(103.6,690.9,o),
(108.5,686,cs),
(115.5,679.7,o),
(112.7,671.3,o),
(117.6,664.3,cs),
(129.5,644,o),
(149.1,633.5,o),
(172.2,631.4,cs),
(184.1,630,o),
(196,629.3,o),
(208.6,629.3,cs),
(242.9,629.3,o),
(277.2,632.8,o),
(311.5,632.8,cs),
(360.5,632.8,o),
(408.1,626.5,o),
(449.4,594.3,cs),
(480.2,570.5,o),
(497,533.4,o),
(510.3,497.7,cs),
(529.9,445.9,o),
(537.6,389.2,o),
(537.6,333.2,cs),
(537.6,297.5,o),
(534.8,261.8,o),
(529.2,227.5,cs),
(524.3,200.2,o),
(518.7,173.6,o),
(511,147,cs),
(506.8,131.6,o),
(503.3,117.6,o),
(487.9,109.2,cs),
(483,106.4,o),
(476.7,105,o),
(469.7,105,cs),
(454.3,105,o),
(437.5,112,o),
(429.1,122.5,cs),
(424.2,128.8,o),
(422.1,137.2,o),
(422.1,144.9,cs),
(422.1,149.1,o),
(422.8,152.6,o),
(423.5,156.8,cs),
(428.4,177.1,o),
(443.8,196.7,o),
(454.3,214.9,cs),
(466.2,235.9,o),
(474.6,259,o),
(478.8,282.8,cs),
(481.6,296.1,o),
(483,310.1,o),
(483,324.1,cs),
(483,333.2,o),
(482.3,342.3,o),
(480.9,350.7,cs),
(478.8,363.3,o),
(475.3,376.6,o),
(469.7,387.8,cs),
(434.7,458.5,o),
(352.1,466.2,o),
(279.3,466.2,cs),
(261.1,466.2,o),
(243.6,465.5,o),
(227.5,465.5,cs),
(208.6,465.5,o),
(189.7,464.8,o),
(170.8,464.8,cs),
(162.4,464.8,o),
(152.6,464.1,o),
(143.5,464.1,cs),
(122.5,464.1,o),
(101.5,466.2,o),
(82.6,476,cs),
(56,489.3,o),
(50.4,511,o),
(47.6,538.3,cs),
(46.2,548.8,o),
(46.2,558.6,o),
(46.2,568.4,cs),
(46.2,591.5,o),
(48.3,615.3,o),
(53.2,637.7,cs),
(55.3,651,o),
(58.1,663.6,o),
(61.6,676.9,cs),
(63,680.4,o),
(63.7,687.4,o),
(66.5,690.2,c)
);
}
);
width = 580;
}
);
unicode = 1492;
},
{
color = 5;
glyphname = "vav-hb";
lastChange = "2021-05-17 22:08:15 +0000";
layers = (
{
anchors = (
{
name = bottom;
pos = (184,0);
},
{
name = bottomleft;
pos = (100,0);
},
{
name = center;
pos = (77,270);
},
{
name = top;
pos = (115,610);
},
{
name = topleft;
pos = (106,630);
}
);
layerId = m01;
shapes = (
{
closed = 1;
nodes = (
(176,-17,o),
(172,-15,o),
(172,-9,cs),
(172,50,o),
(178,111,o),
(178,174,cs),
(178,282,o),
(156,387,o),
(97,443,cs),
(67,471,o),
(22,486,o),
(22,513,cs),
(22,561,o),
(59,656,o),
(106,656,cs),
(141,656,o),
(200,611,o),
(221,573,cs),
(241,538,o),
(248,462,o),
(248,420,cs),
(248,246,o),
(230,4,o),
(220,-7,cs),
(213,-15,o),
(195,-17,o),
(182,-17,cs)
);
}
);
width = 308;
},
{
anchors = (
{
name = bottom;
pos = (184,0);
},
{
name = bottomleft;
pos = (100,0);
},
{
name = center;
pos = (93,260);
},
{
name = top;
pos = (115,610);
},
{
name = topleft;
pos = (166,610);
}
);
associatedMasterId = m01;
layerId = "AE2493F3-090F-4792-8A58-0F1576C2A10C";
name = "May 12, 21, 08:18";
shapes = (
{
closed = 1;
nodes = (
(172.2,46.2,o),
(177.8,110.6,o),
(177.8,174.3,cs),
(177.8,238,o),
(172.2,301,o),
(149.1,361.9,cs),
(134.4,401.1,o),
(109.2,434,o),
(77,459.9,cs),
(58.1,476,o),
(25.2,485.1,o),
(22.4,512.4,cs),
(22.4,514.5,o),
(22.4,517.3,o),
(22.4,520.1,cs),
(22.4,555.1,o),
(42,595,o),
(60.2,623,cs),
(69,638,o),
(78,651,o),
(97,655,cs),
(99,655,o),
(102,656,o),
(105.7,655.9,cs),
(117.6,655.9,o),
(129.5,651,o),
(140.7,645.4,cs),
(172.9,630,o),
(203,604.8,o),
(220.5,573.3,cs),
(230.3,557.2,o),
(234.5,536.2,o),
(238.7,517.3,cs),
(245,485.1,o),
(247.8,452.2,o),
(247.8,420,cs),
(247.8,410.2,o),
(247.1,400.4,o),
(247.1,390.6,cs),
(242.9,301,o),
(244.3,210.7,o),
(235.2,120.4,cs),
(232.4,89.6,o),
(231.7,58.8,o),
(227.5,28,cs),
(226.1,18.9,o),
(226.1,0,o),
(219.8,-7,cs),
(212.1,-15.4,o),
(195.3,-16.8,o),
(182,-16.8,cs),
(178.5,-16.8,o),
(175,-16.8,o),
(172.2,-16.8,c)
);
}
);
width = 308;
}
);
unicode = 1493;
},
{
color = 5;
glyphname = "zayin-hb";
lastChange = "2021-05-17 22:08:15 +0000";
layers = (
{
anchors = (
{
name = bottom;
pos = (117,0);
},
{
name = bottomleft;
pos = (7,0);
},
{
name = center;
pos = (0,254);
},
{
name = top;
pos = (194,690);
},
{
name = topleft;
pos = (67,690);
}
);
layerId = m01;
shapes = (
{
closed = 1;
nodes = (
(91,-28,o),
(81,-24,o),
(81,-12,cs),
(81,15,o),
(92,116,o),
(92,165,cs),
(92,411,o),
(45,483,o),
(45,542,cs),
(45,587,o),
(138,652,o),
(198,652,cs),
(217,652,o),
(242,561,o),
(242,530,cs),
(242,457,o),
(148,425,o),
(148,370,cs),
(148,344,o),
(175,300,o),
(175,211,cs),
(175,167,o),
(153,-28,o),
(106,-28,cs)
);
}
);
width = 270;
},
{
anchors = (
{
name = bottom;
pos = (117,0);
},
{
name = bottomleft;
pos = (7,0);
},
{
name = center;
pos = (13,264);
},
{
name = top;
pos = (194,690);
},
{
name = topleft;
pos = (67,690);
}
);
associatedMasterId = m01;
layerId = "DEEC8D0F-5110-43B9-9E3D-44CC70BBD2D6";
name = "May 12, 21, 08:47";
shapes = (
{
closed = 1;
nodes = (
(212.1,651.7,o),
(215.6,628.6,o),
(218.4,619.5,cs),
(227.5,591.5,o),
(242.2,560,o),
(242.2,529.9,cs),
(242.2,523.6,o),
(241.5,517.3,o),
(240.1,511.7,cs),
(231.7,475.3,o),
(202.3,451.5,o),
(178.5,425.6,cs),
(167,413,o),
(153,400,o),
(150,382,cs),
(149,378,o),
(148,374,o),
(148.4,370.3,cs),
(148.4,353.5,o),
(155,339,o),
(160,323,cs),
(166,305,o),
(169,285,o),
(172,265,cs),
(174,248,o),
(175,230,o),
(175,211.4,cs),
(175,166.6,o),
(153,-27,o),
(105.7,-26.6,cs),
(98,-27,o),
(81,-29,o),
(81.2,-17.5,cs),
(81.2,-14.7,o),
(92,116,o),
(91.7,164.5,cs),
(91,243,o),
(91,321,o),
(76,398,cs),
(69,430,o),
(60,459,o),
(52,490,cs),
(48,505,o),
(44.8,520.1,o),
(44.8,534.8,cs),
(44.8,540.4,o),
(45.5,545.3,o),
(46.2,550.2,cs),
(50.4,571.2,o),
(65.8,583.1,o),
(80.5,595.7,cs),
(113.4,624.4,o),
(151.2,651.7,o),
(196,651.7,cs),
(196.7,651.7,o),
(197.4,651.7,o),
(198.1,651.7,cs)
);
}
);
width = 270;
}
);
unicode = 1494;
},
{
color = 5;
glyphname = "het-hb";
lastChange = "2021-05-17 22:08:15 +0000";
layers = (
{
layerId = m01;
shapes = (
{
closed = 1;
nodes = (
(80,-29,o),
(60,-13,o),
(60.2,7.7,cs),
(61,51,o),
(71,339,o),
(80.5,380.8,cs),
(86.8,408.8,o),
(113,452,o),
(112.7,460.6,cs),
(112,471,o),
(68,480,o),
(60,497,cs),
(56,507,o),
(53,536,o),
(53,556,cs),
(53,610,o),
(66,687,o),
(70,691,cs),
(74,695,o),
(87,696,o),
(94,696,cs),
(98,696,o),
(110,695,o),
(113,692,cs),
(120,685,o),
(128,655,o),
(146,648,cs),
(167,640,o),
(196,636,o),
(299.6,636.3,cs),
(349,636,o),
(383,630,o),
(415,613,cs),
(472,583,o),
(508,453,o),
(508,366,cs),
(508,211,o),
(450,22,o),
(314,22,cs),
(294,22,o),
(279,38,o),
(279,62,cs),
(279,95,o),
(325,114,o),
(351,129,cs),
(406,162,o),
(450,243,o),
(450.1,329.7,cs),
(450,432,o),
(402,468,o),
(314,468,cs),
(295,468,o),
(263,465,o),
(241,465,cs),
(227,465,o),
(208,468,o),
(191,468,cs),
(181,468,o),
(174,463,o),
(171,458,cs),
(163,447,o),
(147,402,o),
(147.7,380.1,cs),
(148,354,o),
(200,122,o),
(199.5,83.3,cs),
(200,35,o),
(132,-29,o),
(94,-29,cs)
);
}
);
width = 541;
},
{
associatedMasterId = m01;
layerId = "E37BF7D2-5ADF-4131-8914-0CDA0001A2D3";
name = "May 12, 21, 08:55";
shapes = (
{
closed = 1;
nodes = (
(113,468,o),
(68,479,o),
(61,496,cs),
(57,506,o),
(53,531,o),
(53,556,cs),
(53,579,o),
(66,687,o),
(70,691,cs),
(74,695,o),
(85,695,o),
(92,695,cs),
(96,695,o),
(110.6,695.1,o),
(113.4,693,cs),
(119.7,688.1,o),
(123.2,671.3,o),
(127.4,664.3,cs),
(137.9,648.2,o),
(152.6,644,o),
(170.1,640.5,cs),
(191.8,636.3,o),
(212.8,635.6,o),
(234.5,635.6,cs),
(256.2,635.6,o),
(277.9,636.3,o),
(299.6,636.3,cs),
(317.1,636.3,o),
(334.6,635.6,o),
(352.1,633.5,cs),
(378,629.3,o),
(406.7,622.3,o),
(427,604.8,cs),
(459.2,576.1,o),
(477.4,528.5,o),
(488.6,487.9,cs),
(501.2,443.1,o),
(508.2,394.8,o),
(508.2,345.8,cs),
(508.2,278.6,o),
(495.6,210.7,o),
(467.6,151.9,cs),
(444.5,102.9,o),
(414.4,53.2,o),
(361.9,32.2,cs),
(347.9,27.3,o),
(333.9,24.5,o),
(319.2,23.1,cs),
(316.4,23.1,o),
(312.9,22.4,o),
(310.1,22.4,cs),
(307.3,22.4,o),
(304.5,23.1,o),
(301.7,24.5,cs),
(294,28.7,o),
(290.5,36.4,o),
(286.3,43.4,cs),
(282.1,50.4,o),
(279.3,55.3,o),
(279.3,61.6,cs),
(279.3,63,o),
(279.3,65.1,o),
(280,67.2,cs),
(286.3,101.5,o),
(325.5,112,o),
(351.4,128.8,cs),
(379.4,147,o),
(403.9,176.4,o),
(420,205.8,cs),
(440.3,243.6,o),
(450.1,287,o),
(450.1,329.7,cs),
(450.1,338.8,o),
(449.4,347.9,o),
(448.7,357,cs),
(445.9,385,o),
(440.3,410.9,o),
(420,432.6,cs),
(403.9,450.1,o),
(380.8,458.5,o),
(357.7,462.7,cs),
(336.7,466.9,o),
(315.7,468.3,o),
(294,468.3,cs),
(272.3,468.3,o),
(250.6,466.9,o),
(228.9,465.5,cs),
(225.4,465.5,o),
(221.9,465.5,o),
(219.1,465.5,cs),
(208.6,465.5,o),
(198.8,466.2,o),
(189,466.9,cs),
(185.5,466.9,o),
(181.3,468.3,o),
(177.1,468.3,cs),
(175.7,468.3,o),
(164.5,447.3,o),
(162.4,442.4,cs),
(155.4,422.1,o),
(147.7,401.8,o),
(147.7,380.1,cs),
(147.7,373.1,o),
(148.4,366.1,o),
(150.5,358.4,cs),
(158.2,329.7,o),
(160.3,298.2,o),
(166.6,269.5,cs),
(175.7,224,o),
(188.3,177.8,o),
(193.9,132.3,cs),
(195.3,117.6,o),
(199.5,99.4,o),
(199.5,83.3,cs),
(199.5,76.3,o),
(198.8,70,o),
(196.7,64.4,cs),
(194.6,55.3,o),
(188.3,46.2,o),
(183.4,39.2,cs),
(166.6,12.6,o),
(142.8,-13.3,o),
(112.7,-24.5,cs),
(107.1,-26.6,o),
(99.4,-29.4,o),
(92.4,-29.4,cs),
(91,-29.4,o),
(89.6,-28.7,o),
(88.9,-28.7,cs),
(76.3,-26.6,o),
(63.7,-9.1,o),
(60.9,2.8,c),
(60.9,4.2,o),
(60.2,6.3,o),
(60.2,7.7,cs),
(60.2,11.9,o),
(61.6,16.1,o),
(61.6,20.3,cs),
(61.6,32.9,o),
(61.6,45.5,o),
(62.3,58.1,cs),
(64.4,88.9,o),
(63,119,o),
(65.1,149.8,cs),
(68.6,200.2,o),
(69.3,250.6,o),
(72.8,301.7,cs),
(74.9,327.6,o),
(74.9,355.6,o),
(80.5,380.8,cs),
(86.8,408.8,o),
(112,454,o),
(112.7,460.6,cs)
);
}
);
width = 541;
}
);
unicode = 1495;
},
{
color = 5;
glyphname = "tet-hb";
lastChange = "2021-05-17 22:08:15 +0000";
layers = (
{
anchors = (
{
name = center;
pos = (364,327);
}
);
layerId = m01;
shapes = (
{
closed = 1;
nodes = (
(141,-103,o),
(126,-99,o),
(126,-90,cs),
(126,-71,o),
(160,32,o),
(160,189,cs),
(159,496,o),
(26,501,o),
(26,541,cs),
(26,589,o),
(77,673,o),
(122,673,cs),
(150,673,o),
(205,540,o),
(213,364,cs),
(221,180,o),
(226,163,o),
(231,157,cs),
(239,148,o),
(277,141,o),
(333,141,cs),
(468,142,o),
(529,239,o),
(529,324,cs),
(529,437,o),
(438,497,o),
(379,497,cs),
(331,497,o),
(296,466,o),
(279,466,cs),
(268,466,o),
(260,492,o),
(260,505,cs),
(260,519,o),
(381,676,o),
(403,676,cs),
(519,676,o),
(586,480,o),
(586,341,cs),
(586,159,o),
(499,-24,o),
(308,-24,cs),
(245,-24,o),
(217,-7,o),
(205,-7,cs),
(195,-7,o),
(187,-103,o),
(170,-103,cs)
);
}
);
width = 600;
},
{
anchors = (
{
name = center;
pos = (364,327);
}
);
associatedMasterId = m01;
layerId = "B29EFFF7-8C7A-466E-965F-1D763E1D9FBF";
name = "May 12, 21, 09:59";
shapes = (
{
closed = 1;
nodes = (
(268.8,471.8,o),
(261.8,490.7,o),
(261.8,503.3,cs),
(261.8,505.4,o),
(261.8,506.8,o),
(261.8,508.2,c),
(264.6,520.1,o),
(282,534,o),
(289.1,543.2,cs),
(356.3,627.2,l),
(385.7,662.9,ls),
(389,667,o),
(393.4,674.8,o),
(398.3,676.2,cs),
(399.7,676.9,o),
(401.1,676.9,o),
(402.5,676.9,cs),
(408.1,676.9,o),
(415.1,674.8,o),
(420,673.4,cs),
(441,669.2,o),
(461.3,659.4,o),
(477.4,644.7,cs),
(506.8,616.7,o),
(525.7,578.2,o),
(544.6,543.2,cs),
(551.6,530.6,o),
(559.3,517.3,o),
(564.2,503.3,cs),
(574.7,471.1,o),
(578.2,433.3,o),
(581.7,399.7,cs),
(583.8,379.4,o),
(584.5,357.7,o),
(584.5,336.7,cs),
(584.5,231.7,o),
(557.2,121.8,o),
(482.3,46.9,cs),
(467.6,31.5,o),
(452.2,16.8,o),
(433.3,6.3,cs),
(396.2,-16.1,o),
(351.4,-23.8,o),
(308,-23.8,cs),
(295.4,-23.8,o),
(283.5,-23.1,o),
(271.6,-22.4,cs),
(255.5,-21,o),
(240.1,-17.5,o),
(225.4,-12.6,cs),
(221.2,-11.9,o),
(213.5,-7,o),
(207.9,-7,cs),
(205.8,-7,l),
(198.1,-9.8,o),
(195.3,-25.9,o),
(193.9,-32.9,cs),
(191.8,-48.3,o),
(189.7,-62.3,o),
(185.5,-77.7,cs),
(183.4,-85.4,o),
(181.3,-95.2,o),
(175.7,-100.8,cs),
(173.6,-102.2,o),
(171.5,-102.9,o),
(169.4,-102.9,cs),
(166.6,-102.9,o),
(163.8,-102.2,o),
(161.7,-102.2,cs),
(149.1,-100.8,o),
(137,-99,o),
(124.6,-98,c),
(145,-18,o),
(155,65,o),
(158,148,cs),
(159,162,o),
(160,176,o),
(159.6,189,cs),
(159.6,250.6,o),
(153.3,311.5,o),
(136.5,370.3,cs),
(129.5,393.4,o),
(122.5,419.3,o),
(109.9,440.3,cs),
(99.4,458.5,o),
(83.3,473.9,o),
(70,490,cs),
(60.2,500.5,o),
(49.7,511,o),
(39.9,520.8,cs),
(35.7,525,o),
(28.7,529.9,o),
(26.6,535.5,c),
(26.6,536.9,o),
(26.6,538.3,o),
(26.6,539.7,cs),
(26.6,542.5,o),
(27.3,546.7,o),
(27.3,549.5,cs),
(30.1,578.2,o),
(45.5,603.4,o),
(60.9,627.2,cs),
(67.2,637,o),
(73.5,648.2,o),
(81.9,655.9,cs),
(91,665,o),
(104.3,672.7,o),
(117.6,672.7,cs),
(122.5,672.7,o),
(126.7,672,o),
(130.9,669.9,cs),
(138.6,666.4,o),
(143.5,655.2,o),
(147,648.2,cs),
(156.8,630,o),
(165.9,611.1,o),
(172.2,590.8,cs),
(194.6,523.6,o),
(207.9,450.8,o),
(212.8,380.1,cs),
(217.7,304.5,o),
(217,228.9,o),
(222.6,153.3,c),
(243.6,151.9,o),
(263.9,146.3,o),
(284.9,144.2,cs),
(300.3,142.1,o),
(317.1,141.4,o),
(333.2,141.4,cs),
(377.3,141.4,o),
(422.1,149.1,o),
(457.8,177.1,cs),
(504.7,212.8,o),
(529.9,270.2,o),
(529.9,327.6,cs),
(529.9,378,o),
(510.3,428.4,o),
(468.3,462,cs),
(455.7,472.5,o),
(441,480.9,o),
(425.6,487.2,cs),
(411.6,492.8,o),
(394.8,497,o),
(379.4,497,cs),
(378,497,ls),
(341,497,o),
(308,476.7,o),
(274.4,462.7,c)
);
}
);
width = 600;
}
);
unicode = 1496;
},
{
color = 5;
glyphname = "yod-hb";
lastChange = "2021-05-17 22:08:15 +0000";
layers = (
{
anchors = (
{
name = center;
pos = (45,368);
}
);
layerId = m01;
shapes = (
{
closed = 1;
nodes = (
(60,684,o),
(75,688,o),
(89,688,cs),
(94,688,o),
(96,684,o),
(96,679,cs),
(96,644,o),
(109,626,o),
(201,591,cs),
(235,578,o),
(258,544,o),
(258,502,cs),
(258,353,o),
(148,241,o),
(130,241,cs),
(120,241,o),
(101,258,o),
(101,269,cs),
(101,276,o),
(110,284,o),
(124,301,cs),
(145,326,o),
(174,365,o),
(174,401,cs),
(174,426,o),
(163,434,o),
(135,445,cs),
(66,472,o),
(20,488,o),
(20,557,cs),
(20,602,o),
(47,665,o),
(55,677,cs)
);
}
);
width = 270;
},
{
anchors = (
{
name = center;
pos = (65,377);
}
);
associatedMasterId = m01;
layerId = "BB3BC3F1-4126-4DF1-9385-36962741E705";
name = "May 12, 21, 10:51";
shapes = (
{
closed = 1;
nodes = (
(69,684,o),
(83,686,o),
(97,687,c),
(97,683,o),
(95.2,679.7,o),
(95.2,675.5,cs),
(95.2,674.8,o),
(95.9,673.4,o),
(95.9,672.7,cs),
(97.3,664.3,o),
(100.1,651.7,o),
(105,644.7,cs),
(126.7,611.8,o),
(175,604.1,o),
(207.2,586.6,cs),
(231,573.3,o),
(251.3,551.6,o),
(256.2,524.3,cs),
(257.6,518,o),
(257.6,512.4,o),
(257.6,506.1,cs),
(257.6,499.1,o),
(256.9,491.4,o),
(256.9,484.4,cs),
(252,412.3,o),
(224,343,o),
(179.2,287,cs),
(169.4,274.4,o),
(158.9,262.5,o),
(147.7,252,cs),
(142.1,246.4,o),
(136.5,241.5,o),
(129.5,241.5,cs),
(127.4,241.5,o),
(126,241.5,o),
(123.2,242.9,cs),
(118.3,245,o),
(112.7,252.7,o),
(109.2,256.9,cs),
(105,260.4,o),
(98.7,265.3,o),
(97.3,270.2,cs),
(97.3,270.9,o),
(97.3,270.9,o),
(97.3,271.6,cs),
(97.3,275.8,o),
(102.9,279.3,o),
(105,282.1,c),
(113.4,290.5,o),
(121.8,300.3,o),
(130.2,310.1,cs),
(149.1,333.2,o),
(173.6,367.5,o),
(173.6,401.1,cs),
(173.6,408.8,o),
(172.9,416.5,o),
(169.4,424.2,cs),
(165.2,434,o),
(144.2,441,o),
(135.1,445.2,cs),
(105.7,457.8,o),
(72.8,467.6,o),
(47.6,488.6,cs),
(26.6,506.1,o),
(19.6,530.6,o),
(19.6,556.5,cs),
(19.6,587.3,o),
(29.4,620.2,o),
(39.9,645.4,cs),
(44.1,657.3,o),
(51.1,669.2,o),
(54.6,681.8,c)
);
}
);
width = 270;
}
);
unicode = 1497;
},
{
color = 5;
glyphname = "kafFinal-hb";
lastChange = "2021-05-17 22:08:15 +0000";
layers = (
{
anchors = (
{
name = bottom;
pos = (232,-317);
},
{
name = center;
pos = (154,317);
}
);
layerId = m01;
shapes = (
{
closed = 1;
nodes = (
(303,470,o),
(169,464,o),
(110,464,cs),
(51,464,o),
(25,495,o),
(25,558,cs),
(25,594,o),
(35,667,o),
(39,677,cs),
(43,686,o),
(63,694,o),
(75,694,cs),
(84,694,o),
(90,691,o),
(93,680,cs),
(97,665,o),
(114,628,o),
(195,628,cs),
(220,628,o),
(258,634,o),
(289,634,cs),
(377,634,o),
(406,572,o),
(406,509,cs),
(406,440,o),
(370,373,o),
(370,295,cs),
(370,219,o),
(424,-104,o),
(424,-200,cs),
(424,-260,o),
(367,-342,o),
(309,-342,cs),
(290,-342,o),
(277,-317,o),
(277,-298,cs),
(277,-247,o),
(282,-57,o),
(282,124,cs),
(282,381,o),
(329,438,o),
(329,457,cs),
(329,465,o),
(326,470,o),
(318,470,cs)
);
}
);
width = 465;
},
{
anchors = (
{
name = bottom;
pos = (122,283);
},
{
name = center;
pos = (125,300);
}
);
associatedMasterId = m01;
layerId = "7D567AD8-DBA6-4E10-84D9-7E6D2FFA8F96";
name = "May 12, 21, 11:09";
shapes = (
{
closed = 1;
nodes = (
(147,468.3,ls),
(135.1,468.3,o),
(123.2,467.6,o),
(111.3,467.6,cs),
(92.4,467.6,o),
(73.5,469.7,o),
(57.4,480.9,cs),
(28.7,499.8,o),
(28,525,o),
(28,556.5,cs),
(28,557.9,ls),
(28,583.1,o),
(29.4,607.6,o),
(32.2,632.8,cs),
(33.6,645.4,o),
(35,658,o),
(37.1,670.6,cs),
(37.1,674.8,o),
(37.1,682.5,o),
(39.9,686,cs),
(42,688.8,o),
(49,688.1,o),
(52.5,688.8,cs),
(64.4,690.2,o),
(76,692,o),
(88.2,694.4,c),
(96,641,o),
(149.1,627.9,o),
(194.6,627.9,cs),
(222.6,627.9,o),
(254.8,633.5,o),
(285.6,633.5,cs),
(316.4,633.5,o),
(346.5,627.9,o),
(370.3,605.5,cs),
(378.7,597.8,o),
(385,588,o),
(390.6,578.2,cs),
(396.9,567,o),
(400.4,553.7,o),
(403.2,540.4,cs),
(405.3,529.9,o),
(406,519.4,o),
(406,508.9,cs),
(406,440.3,o),
(370.3,373.1,o),
(370.3,303.8,cs),
(370.3,295.4,ls),
(370,240,o),
(380.8,185.5,o),
(387.8,130.2,cs),
(394.1,74.9,o),
(400.4,18.9,o),
(407.4,-37.1,cs),
(412.3,-74.2,o),
(416.5,-110.6,o),
(420,-147.7,cs),
(421.4,-163.1,o),
(424.2,-178.5,o),
(424.2,-193.2,cs),
(424.2,-195.3,o),
(424.2,-197.4,o),
(424.2,-199.5,cs),
(422.1,-242.2,o),
(403.2,-280,o),
(373.1,-310.1,cs),
(354.2,-329,o),
(336,-341.6,o),
(309,-342,cs),
(305.2,-341.6,ls),
(290,-342,o),
(284.9,-309.4,o),
(284.2,-297.5,cs),
(283.5,-290.5,o),
(283.5,-283.5,o),
(283.5,-277.2,cs),
(283.5,-264.6,o),
(284.2,-251.3,o),
(284.2,-239.4,cs),
(284.2,-208.6,o),
(282.8,-177.8,o),
(282.8,-147,cs),
(282.8,-61.6,o),
(282.1,23.1,o),
(282.1,107.8,cs),
(282.1,123.9,ls),
(282.1,207.9,o),
(282.8,291.2,o),
(302.4,374.5,cs),
(310.1,407.4,o),
(322.7,437.5,o),
(335.3,468.3,c)
);
}
);
width = 465;
}
);
unicode = 1498;
},
{
color = 5;
glyphname = "kaf-hb";
lastChange = "2021-05-17 22:08:15 +0000";
layers = (
{
anchors = (
{
name = center;
pos = (192,329);
}
);
layerId = m01;
shapes = (
{
closed = 1;
nodes = (
(78,708,o),
(84,705,o),
(86,695,cs),
(93,653,o),
(137,642,o),
(165,642,cs),
(194,642,o),
(220,645,o),
(239,645,cs),
(362,645,o),
(415,525,o),
(415,368,cs),
(415,193,o),
(325,-17,o),
(52,-17,cs),
(30,-17,o),
(23,-4,o),
(23,54,cs),
(23,101,o),
(29,136,o),
(44,147,cs),
(55,155,o),
(71,160,o),
(99,160,cs),
(206,160,o),
(358,195,o),
(358,346,cs),
(358,431,o),
(315,477,o),
(230,477,cs),
(202,477,o),
(166,472,o),
(137,472,cs),
(72,472,o),
(18,477,o),
(15,571,cs),
(14,620,o),
(29,689,o),
(35,698,cs),
(40,706,o),
(60,708,o),
(73,708,cs)
);
}
);
width = 465;
},
{
anchors = (
{
name = center;
pos = (177,330);
}
);
associatedMasterId = m01;
layerId = "B822F9EC-DFC9-479D-AEB0-8E0B0AA75E48";
name = "May 12, 21, 11:36";
shapes = (
{
closed = 1;
nodes = (
(87,708,o),
(84,705,o),
(86.1,695.1,cs),
(87.5,688.1,o),
(89.6,680.4,o),
(93.1,673.4,cs),
(102.2,658.7,o),
(123.2,651.7,o),
(139.3,648.2,cs),
(155.4,644,o),
(171.5,643.3,o),
(188.3,643.3,cs),
(200.9,643.3,o),
(213.5,644,o),
(226.8,644,cs),
(249.9,644,o),
(273.7,642.6,o),
(295.4,633.5,cs),
(321.3,623,o),
(343.7,602.7,o),
(360.5,581.7,cs),
(399.7,530.6,o),
(410.2,464.8,o),
(414.4,402.5,cs),
(415.1,390.6,o),
(415.1,379.4,o),
(415.1,367.5,cs),
(415.1,279.3,o),
(392,192.5,o),
(341.6,118.3,cs),
(338.8,114.8,o),
(338.1,110.6,o),
(335.3,107.1,cs),
(289.1,47.6,o),
(217,9.8,o),
(144.9,-6.3,cs),
(121.1,-11.2,o),
(97.3,-14,o),
(72.8,-15.4,cs),
(66.5,-16.1,o),
(58.8,-16.8,o),
(51.8,-16.8,cs),
(43.4,-16.8,ls),
(28,-17,o),
(28,13.3,o),
(27.3,24.5,cs),
(26.6,33.6,o),
(23.1,44.1,o),
(23.1,53.9,cs),
(23.1,70.7,o),
(28,88.9,o),
(29.4,105.7,cs),
(30.1,121.8,o),
(32.2,138.6,o),
(45.5,149.1,cs),
(60.2,160.3,o),
(81.9,158.2,o),
(99.4,159.6,cs),
(133.7,161.7,o),
(168.7,165.9,o),
(202.3,172.2,cs),
(252,182.7,o),
(303.1,206.5,o),
(332.5,249.9,cs),
(340.2,261.8,o),
(346.5,275.1,o),
(351.4,288.4,cs),
(354.9,301,o),
(355.6,313.6,o),
(357,325.5,cs),
(357.7,331.8,o),
(357.7,338.8,o),
(357.7,345.8,cs),
(357.7,392.7,o),
(341.6,445.9,o),
(294.7,464.8,cs),
(271.6,473.9,o),
(247.1,476,o),
(222.6,476,cs),
(194.6,476,o),
(165.9,472.5,o),
(137.2,472.5,cs),
(130.9,472.5,o),
(123.9,473.2,o),
(117.6,473.2,cs),
(94.5,475.3,o),
(59.5,477.4,o),
(40.6,493.5,cs),
(28.7,503.3,o),
(21.7,522.2,o),
(18.2,537.6,cs),
(16.1,548.8,o),
(15.4,560,o),
(15.4,571.2,cs),
(15.4,596.4,o),
(19.6,622.3,o),
(22.4,647.5,cs),
(23.8,661.5,o),
(32.2,697.2,o),
(35,700.7,cs),
(37.1,703.5,o),
(66,708,o),
(77,708.4,cs)
);
}
);
width = 465;
}
);
unicode = 1499;
},
{
color = 5;
glyphname = "lamed-hb";
lastChange = "2021-05-17 22:08:15 +0000";
layers = (
{
anchors = (
{
name = center;
pos = (138,306);
}
);
layerId = m01;
shapes = (
{
closed = 1;
nodes = (
(29,-40,o),
(22,-23,o),
(21.7,16.8,cs),
(22,39,o),
(34,112,o),
(41,125,cs),
(49,140,o),
(65,143,o),
(79.8,145.6,cs),
(188,163,o),
(279,211,o),
(278.6,315,cs),
(278,392,o),
(219,425,o),
(147,457.8,cs),
(116,471,o),
(71,482,o),
(71.4,531.3,cs),
(71,544,o),
(82,720,o),
(83.3,774.2,cs),
(84,815,o),
(65,834,o),
(32.2,863.8,cs),
(23.8,870.1,o),
(2,884,o),
(1.4,895.3,cs),
(1,920,o),
(9,939,o),
(14,969,cs),
(17,986,o),
(22,1000,o),
(48.3,1000.3,cs),
(79,1001,o),
(176,952,o),
(176,921,cs),
(176,889,o),
(155,751,o),
(146,684,cs),
(145,677,o),
(145,668,o),
(145,663,cs),
(145,656,o),
(149,653,o),
(162,648,cs),
(300,594,o),
(337,480,o),
(336.7,348.6,cs),
(336,145,o),
(200,-39,o),
(56,-39.9,cs)
);
}
);
width = 387;
},
{
anchors = (
{
name = center;
pos = (110,320);
}
);
associatedMasterId = m01;
layerId = "80D01CFF-9CA8-4019-A007-70A2BE622974";
name = "May 12, 21, 11:51";
shapes = (
{
closed = 1;
nodes = (
(161.7,650.3,o),
(188.3,638.4,o),
(205.1,628.6,cs),
(255.5,598.5,o),
(294,546,o),
(315.7,492.1,cs),
(331.1,452.2,o),
(337,412,o),
(336.7,369.6,cs),
(336.7,348.6,ls),
(336.7,242.2,o),
(301.7,136.5,o),
(233.1,54.6,cs),
(221.9,40.6,o),
(209.3,25.9,o),
(195.3,15.4,cs),
(171.5,-3.5,o),
(140.7,-17.5,o),
(112.7,-28,cs),
(95.9,-34.3,o),
(74.9,-39.9,o),
(56,-39.9,cs),
(51.8,-39.9,o),
(47.6,-39.2,o),
(43.4,-39.2,c),
(28,-36.4,o),
(24.5,-11.9,o),
(23.1,0,cs),
(22.4,5.6,o),
(21.7,11.2,o),
(21.7,16.8,cs),
(21.7,38.5,o),
(26.6,61.6,o),
(30.1,82.6,cs),
(32.2,97.3,o),
(33.6,112,o),
(41.3,125.3,cs),
(49,140,o),
(64.4,142.8,o),
(79.8,145.6,cs),
(100.8,149.8,o),
(121.8,154,o),
(142.8,159.6,cs),
(164.5,165.9,o),
(186.2,172.2,o),
(205.1,183.4,cs),
(246.4,209.3,o),
(272.3,257.6,o),
(277.9,305.2,cs),
(277.9,308.7,o),
(278.6,311.5,o),
(278.6,315,cs),
(278.6,322,o),
(277.9,329.7,o),
(276.5,336.7,cs),
(265.3,405.3,o),
(203.7,431.9,o),
(147,457.8,cs),
(130.2,464.8,o),
(114.1,472.5,o),
(98,481.6,cs),
(92.4,485.1,o),
(83.3,488.6,o),
(79.8,494.9,cs),
(73.5,506.1,o),
(71.4,518,o),
(71.4,531.3,cs),
(71.4,548.1,o),
(74.9,565.6,o),
(75.6,581.7,cs),
(77.7,629.3,o),
(76.3,678.3,o),
(79.8,725.9,cs),
(80.5,742,o),
(83.3,758.1,o),
(83.3,774.2,cs),
(83.3,781.9,o),
(82.6,789.6,o),
(81.2,796.6,cs),
(75.6,825.3,o),
(52.5,845.6,o),
(32.2,863.8,cs),
(23.8,870.1,o),
(2.8,884.1,o),
(1.4,895.3,cs),
(1.4,897.4,o),
(1.4,900.2,o),
(1.4,903,cs),
(1.4,924.7,o),
(7.7,948.5,o),
(14,968.1,cs),
(16.1,974.4,o),
(16.8,986.3,o),
(22.4,990.5,cs),
(30.1,997.5,o),
(39.2,1000.3,o),
(48.3,1000.3,cs),
(71.4,1000.3,o),
(97.3,983.5,o),
(115.5,974.4,cs),
(126,968.8,o),
(135.8,963.9,o),
(145.6,957.6,cs),
(155.4,950.6,o),
(168,942.2,o),
(172.9,931,cs),
(175,927.5,o),
(175.7,923.3,o),
(175.7,917.7,cs),
(175.7,905.8,o),
(172.2,890.4,o),
(171.5,882.7,cs),
(169.4,868,o),
(170.1,866.6,o),
(168,851.2,cs),
(159.6,784.7,o),
(149.8,718.9,o),
(141.4,652.4,c)
);
}
);
width = 387;
}
);
unicode = 1500;
},
{
color = 5;
glyphname = "memFinal-hb";
lastChange = "2021-05-17 22:08:15 +0000";
layers = (
{
layerId = m01;
shapes = (
{
closed = 1;
nodes = (
(125,436,o),
(125,328,cs),
(125,228,o),
(164,142,o),
(321,142,cs),
(405,142,o),
(499,212,o),
(499.1,294,cs),
(499,412,o),
(466,462,o),
(353,462,cs),
(163,462,o)
);
},
{
closed = 1;
nodes = (
(73,696,o),
(97,700,o),
(107,700,cs),
(112,700,o),
(116,698,o),
(116,692,cs),
(116,661,o),
(152,635,o),
(235,635,cs),
(278,635,o),
(308,639,o),
(366,639,cs),
(474,639,o),
(550,510,o),
(550,341,cs),
(550,189,o),
(497,-31,o),
(279,-31,cs),
(130,-31,o),
(42,102,o),
(42,260.4,cs),
(42,404,o),
(114,453,o),
(114,462,cs),
(114,470,o),
(50,480,o),
(50,539,cs),
(50,596,o),
(66,681,o),
(70,689,cs)
);
}
);
width = 580;
},
{
associatedMasterId = m01;
layerId = "02C26F68-5BDF-4DAE-919E-156B81C58064";
name = "May 12, 21, 12:02";
shapes = (
{
closed = 1;
nodes = (
(114.8,697.9,l),
(111.3,699.3,o),
(74.9,690.9,o),
(70.7,694.4,c)
);
},
{
closed = 1;
nodes = (
(70.7,694.4,l),
(58.8,623.7,l)
);
},
{
closed = 1;
nodes = (
(165.2,447.3,o),
(144.2,420.7,o),
(135.8,390.6,cs),
(125.3,325.5,l),
(127.4,262.5,l),
(156.8,210,l),
(167.3,199.5,ls),
(174.3,193.2,o),
(180.6,186.9,o),
(186.9,180.6,cs),
(190.4,176.4,o),
(193.9,172.9,o),
(198.8,170.1,cs),
(202.3,168,o),
(206.5,166.6,o),
(210.7,165.2,cs),
(217.7,163.1,o),
(224,159.6,o),
(230.3,156.1,cs),
(233.8,154,o),
(237.3,152.6,o),
(240.8,151.2,c),
(305.9,142.8,l),
(350,140.7,l),
(400.4,161.7,l),
(450.8,195.3,l),
(482.3,237.3,l),
(499.1,294,l),
(494.9,367.5,l),
(476,413.7,l),
(442.4,453.6,l),
(398.3,464.1,l),
(333.2,470.4,l),
(280.7,470.4,l),
(252,479.5,o),
(219.1,476,o),
(192.5,462,cs)
);
},
{
closed = 1;
nodes = (
(114.8,697.9,l),
(114.8,662.9,o),
(142.1,644,o),
(175,639.8,cs),
(210.7,635.6,o),
(249.2,633.5,o),
(285.6,634.2,cs),
(308.7,634.2,o),
(332.5,636.3,o),
(355.6,634.9,cs),
(382.9,632.8,o),
(415.1,630,o),
(439.6,617.4,cs),
(463.4,603.4,o),
(480.9,582.4,o),
(494.9,559.3,cs),
(518.7,520.1,o),
(534.1,476.7,o),
(541.8,431.9,cs),
(553.7,366.8,o),
(552.3,297.5,o),
(541.1,232.4,cs),
(527.8,149.8,o),
(494.9,66.5,o),
(427,14,cs),
(357,-39.9,o),
(248.5,-45.5,o),
(172.2,-2.8,cs),
(135.1,17.5,o),
(105,51.1,o),
(84,87.5,cs),
(53.9,140,o),
(44.8,200.9,o),
(42,260.4,cs),
(39.9,305.9,o),
(50.4,359.8,o),
(72.1,399.7,cs),
(85.4,424.2,o),
(105,444.5,o),
(119.7,468.3,c),
(108.5,470.4,o),
(98,473.2,o),
(88.2,478.8,cs),
(55.3,495.6,o),
(45.5,532.7,o),
(50.4,567,cs),
(56,609,o),
(67.9,651.7,o),
(70.7,694.4,c)
);
}
);
width = 580;
}
);
unicode = 1501;
},
{
color = 5;
glyphname = "mem-hb";
lastChange = "2021-05-17 22:08:15 +0000";
layers = (
{
anchors = (
{
name = center;
pos = (356,295);
}
);
layerId = m01;
shapes = (
{
closed = 1;
nodes = (
(353,656,o),
(385,656,cs),
(509,656,o),
(571,502,o),
(571,359,cs),
(571,146,o),
(462,-19,o),
(338,-19,cs),
(303,-19,o),
(299,2,o),
(299,37,cs),
(299,67,o),
(301,87,o),
(339,97,cs),
(412,116,o),
(512,182,o),
(512,295,cs),
(512,395,o),
(440,472,o),
(348,472,cs),
(304,472,o),
(229,453,o),
(229,427,cs),
(229,409,o),
(235,361,o),
(235,328,cs),
(235,236,o),
(184,-31,o),
(75,-31,cs),
(55,-31,o),
(34,-25,o),
(34,8,cs),
(34,36,o),
(35,60,o),
(50,72,cs),
(160,162,o),
(164,228,o),
(164,297,cs),
(164,471,o),
(45,487,o),
(45,533,cs),
(45,563,o),
(89,655,o),
(126,655,cs),
(147,655,o),
(165,640,o),
(186,600,cs),
(206,561,o),
(224,503,o),
(235,503,cs),
(246,503,o),
(256,522,o),
(295,589,cs),
(320,631,o)
);
}
);
width = 619;
},
{
anchors = (
{
name = center;
pos = (356,295);
}
);
associatedMasterId = m01;
layerId = "666053AE-E492-4F34-A84C-81749992BF4F";
name = "May 12, 21, 12:19";
shapes = (
{
closed = 1;
nodes = (
(368.9,657.3,o),
(375.2,658,o),
(381.5,658,cs),
(457.1,658,o),
(514.5,595.7,o),
(541.8,527.8,cs),
(562.8,474.6,o),
(571.2,417.2,o),
(571.2,359.1,cs),
(571.2,326.9,o),
(568.4,294,o),
(564.2,262.5,cs),
(557.2,207.9,o),
(544.6,155.4,o),
(517.3,107.1,cs),
(493.5,63.7,o),
(460.6,25.2,o),
(417.2,0.7,cs),
(399.7,-9.1,o),
(379.4,-18.9,o),
(359.1,-18.9,cs),
(357,-18.9,o),
(354.9,-18.2,o),
(352.8,-18.2,cs),
(340.9,-17.5,o),
(323.4,-16.8,o),
(314.3,-8.4,cs),
(301.7,2.8,o),
(301.7,25.9,o),
(300.3,40.6,cs),
(299.6,44.8,o),
(298.9,49.7,o),
(298.9,53.9,cs),
(298.9,56.7,o),
(299.6,58.8,o),
(299.6,61.6,c),
(301,65.8,o),
(305.2,70,o),
(308.7,74.2,cs),
(324.1,91.7,o),
(347.9,98.7,o),
(369.6,107.1,cs),
(400.4,118.3,o),
(429.1,128.8,o),
(454.3,151.2,cs),
(495.6,187.6,o),
(511.7,240.8,o),
(511.7,294.7,cs),
(511.7,298.2,ls),
(511.7,313.6,o),
(511,329,o),
(507.5,343,cs),
(501.2,366.1,o),
(487.2,389.2,o),
(473.2,408.1,cs),
(457.8,429.1,o),
(439.6,450.1,o),
(415.1,459.9,cs),
(393.4,468.3,o),
(370.3,471.8,o),
(347.9,471.8,cs),
(322,471.8,o),
(296.8,466.9,o),
(272.3,458.5,cs),
(261.8,454.3,o),
(252,450.1,o),
(242.2,445.2,cs),
(238.7,443.1,o),
(233.1,441,o),
(231.7,438.2,cs),
(230.3,436.1,o),
(230.3,433.3,o),
(230.3,430.5,cs),
(230.3,423.5,o),
(232.4,413.7,o),
(232.4,408.1,cs),
(232.4,381.5,o),
(232.4,354.9,o),
(231.7,328.3,cs),
(228.2,254.8,o),
(219.1,178.5,o),
(195.3,107.8,cs),
(182.7,70.7,o),
(168,30.8,o),
(142.8,0,cs),
(132.3,-13.3,o),
(116.2,-28,o),
(99.4,-31.5,cs),
(95.9,-32.2,o),
(93.1,-32.2,o),
(89.6,-32.2,cs),
(80.5,-32.2,o),
(70,-30.1,o),
(62.3,-28,cs),
(49,-24.5,o),
(32.9,-16.8,o),
(27.3,-4.2,cs),
(24.5,2.1,o),
(24.5,9.8,o),
(24.5,16.8,cs),
(24.5,19.6,o),
(24.5,23.1,o),
(24.5,26.6,cs),
(24.5,27.3,o),
(24.5,29.4,o),
(24.5,30.8,cs),
(24.5,37.1,o),
(24.5,44.8,o),
(28,50.4,cs),
(36.4,64.4,o),
(53.2,74.9,o),
(65.1,85.4,cs),
(84.7,102.9,o),
(103.6,121.8,o),
(119.7,142.1,cs),
(152.6,182.7,o),
(163.8,242.9,o),
(163.8,296.8,cs),
(163.8,310.1,o),
(163.1,322.7,o),
(162.4,334.6,cs),
(158.2,378,o),
(142.8,421.4,o),
(112.7,454.3,cs),
(98.7,469,o),
(82.6,482.3,o),
(67.9,497,cs),
(58.8,505.4,o),
(48.3,515.9,o),
(45.5,529.2,cs),
(44.8,529.9,o),
(44.8,531.3,o),
(44.8,532.7,cs),
(44.8,539,o),
(47.6,546.7,o),
(49,552.3,cs),
(54.6,574,o),
(64.4,595,o),
(77,613.2,cs),
(85.4,625.1,o),
(94.5,639.8,o),
(105.7,648.2,cs),
(112.7,652.4,o),
(119,654.5,o),
(126,654.5,cs),
(137.9,654.5,o),
(149.8,648.2,o),
(159.6,640.5,cs),
(186.9,616.7,o),
(200.2,583.1,o),
(211.4,549.5,cs),
(216.3,534.8,o),
(220.5,519.4,o),
(224.7,504.7,cs),
(226.1,501.2,o),
(226.8,492.1,o),
(231.7,492.1,cs),
(232.4,492.1,o),
(232.4,492.1,o),
(233.1,492.8,cs),
(237.3,494.2,o),
(239,501,o),
(240.8,504.7,cs),
(261.1,540.4,ls),
(278,570,o),
(294,599.9,o),
(315,625.8,cs),
(322,634.9,o),
(331.1,648.9,o),
(341.6,653.8,cs),
(347.2,657.3,o),
(355.6,655.9,o),
(362.6,656.6,cs)
);
}
);
width = 619;
}
);
unicode = 1502;
},
{
color = 5;
glyphname = "nunFinal-hb";
lastChange = "2021-05-17 22:08:15 +0000";
layers = (
{
layerId = m01;
shapes = (
{
closed = 1;
nodes = (
(120,-332,o),
(114,-309,o),
(114,-286,cs),
(112.7,189,ls),
(112,343,o),
(183,402,o),
(183,427,cs),
(183,440,o),
(175,444,o),
(112,471,cs),
(53,496,o),
(39,526,o),
(39,572,cs),
(39,625,o),
(49,679,o),
(66,702,cs),
(70,708,o),
(95,712,o),
(102,712,cs),
(109,712,o),
(110,710,o),
(114,699,cs),
(127,659,o),
(182,641,o),
(217,610,cs),
(245,586,o),
(249,568,o),
(248.5,532.7,cs),
(249,450,o),
(203,320,o),
(203.7,233.8,cs),
(204,180,o),
(255,-69,o),
(254.8,-192.5,cs),
(255,-246,o),
(198,-332,o),
(142,-332,cs)
);
}
);
width = 308;
},
{
associatedMasterId = m01;
layerId = "F972E7E2-4949-4DFA-8FAA-FEEE73A794F4";
name = "May 12, 21, 15:12";
shapes = (
{
closed = 1;
nodes = (
(165.9,443.8,o),
(149.1,452.9,o),
(132.3,461.3,cs),
(102.9,474.6,o),
(67.9,489.3,o),
(51.8,519.4,cs),
(42.7,535.5,o),
(42,550.9,o),
(40.6,568.4,cs),
(40.6,575.4,o),
(39.9,581.7,o),
(39.9,588.7,cs),
(39.9,613.9,o),
(43.4,639.1,o),
(49,662.9,cs),
(51.8,674.1,o),
(55.3,684.6,o),
(59.5,695.1,cs),
(60.9,698.6,o),
(62.3,704.2,o),
(65.8,707,cs),
(69.3,709.1,o),
(74.9,708.4,o),
(78.4,709.1,cs),
(89.6,710.5,o),
(100,712,o),
(110.6,711.9,c),
(118,659,o),
(182,641.2,o),
(217,610.4,cs),
(227.5,601.3,o),
(240.8,588,o),
(244.3,573.3,cs),
(247.8,560.7,o),
(248.5,546.7,o),
(248.5,532.7,cs),
(248.5,504,o),
(243.6,474.6,o),
(238.7,448,cs),
(226.8,382.2,o),
(207.2,315.7,o),
(204.4,249.2,cs),
(203.7,243.6,o),
(203.7,238.7,o),
(203.7,233.8,cs),
(203.7,215.6,o),
(205.1,197.4,o),
(207.9,179.9,cs),
(210.7,165.2,o),
(214.9,151.9,o),
(216.3,137.2,cs),
(224.7,63.7,o),
(234.5,-9.1,o),
(242.2,-82.6,cs),
(245.7,-117.6,o),
(253.4,-152.6,o),
(254.8,-187.6,cs),
(254.8,-189,o),
(254.8,-191.1,o),
(254.8,-192.5,cs),
(254.8,-233.1,o),
(231.7,-271.6,o),
(204.4,-299.6,cs),
(195.3,-308.7,o),
(184.8,-319.2,o),
(172.9,-324.8,cs),
(162.4,-330.4,o),
(148.4,-331.8,o),
(137.2,-331.8,cs),
(135.8,-331.8,o),
(134.4,-331.8,o),
(133,-331.8,cs),
(129.5,-331.8,o),
(126.7,-331.1,o),
(123.9,-328.3,cs),
(115.5,-319.2,o),
(114.8,-301,o),
(114.8,-286.3,cs),
(114.8,-282.1,o),
(114.8,-278.6,o),
(114.8,-275.1,cs),
(114.8,-231.7,o),
(113.4,-189,o),
(113.4,-145.6,cs),
(113.4,113.4,ls),
(113.4,138.6,o),
(112.7,163.8,o),
(112.7,189,cs),
(112.7,217,o),
(114.1,244.3,o),
(119,272.3,cs),
(130.2,331.1,o),
(163.8,380.8,o),
(182.7,436.8,c)
);
}
);
width = 308;
}
);
unicode = 1503;
},
{
color = 5;
glyphname = "nun-hb";
lastChange = "2021-05-17 22:08:15 +0000";
layers = (
{
anchors = (
{
name = center;
pos = (104,317);
}
);
layerId = m01;
shapes = (
{
closed = 1;
nodes = (
(23,-38,o),
(15,-13,o),
(15,0,cs),
(15,21,o),
(27,119,o),
(35,132,cs),
(39,139,o),
(51,144,o),
(62,147,cs),
(155,173,o),
(244,203,o),
(244,330,cs),
(244,419,o),
(186,446,o),
(88,481,cs),
(63,490,o),
(52,501,o),
(52,520,cs),
(52,568,o),
(83,621,o),
(106,640,cs),
(116,648,o),
(134,652,o),
(155,652,cs),
(182,652,o),
(238,618,o),
(266,560,cs),
(290,509,o),
(298,439,o),
(298,363,cs),
(298,299,o),
(291,222,o),
(262,159,cs),
(216,59,o),
(132,-38,o),
(42,-38,cs)
);
}
);
width = 347;
},
{
anchors = (
{
name = center;
pos = (81,318);
}
);
associatedMasterId = m01;
layerId = "85E84D20-5B2E-44A6-85C2-3E22B9AE03EC";
name = "May 12, 21, 15:21";
shapes = (
{
closed = 1;
nodes = (
(160.3,651.7,o),
(160.3,651.7,o),
(161,651.7,cs),
(175.7,651.7,o),
(196,637,o),
(207.2,629.3,cs),
(261.1,592.9,o),
(280.7,536.2,o),
(289.8,474.6,cs),
(294.7,438.2,o),
(297,401,o),
(297.5,363.3,cs),
(298,249,o),
(270.9,133.7,o),
(193.2,47.6,cs),
(161.7,11.9,o),
(116.9,-24.5,o),
(69.3,-32.9,cs),
(60.9,-34.3,o),
(52.5,-37.8,o),
(44.1,-37.8,cs),
(42.7,-37.8,o),
(42,-37.8,o),
(40.6,-37.8,cs),
(22.4,-35.7,o),
(18.9,-13.3,o),
(17.5,2.1,cs),
(16.8,6.3,o),
(16.8,10.5,o),
(16.8,14.7,cs),
(16.8,39.2,o),
(23.1,63.7,o),
(25.2,88.2,cs),
(26.6,102.9,o),
(28,122.5,o),
(35.7,135.1,cs),
(42,143.5,o),
(51.8,144.9,o),
(61.6,147,cs),
(79.8,152.6,o),
(98.7,157.5,o),
(116.9,164.5,cs),
(154.7,178.5,o),
(195.3,196.7,o),
(217.7,232.4,cs),
(232,255,o),
(244,299,o),
(243.6,330.4,cs),
(243.6,357.7,o),
(237.3,385,o),
(221.2,406.7,cs),
(205.8,426.3,o),
(185.5,440.3,o),
(163.1,449.4,cs),
(137.9,460.6,o),
(110.6,469.7,o),
(85.4,482.3,cs),
(77.7,486.5,o),
(63.7,490.7,o),
(58.1,499.1,cs),
(53.9,505.4,o),
(53.2,515.2,o),
(52.5,522.9,cs),
(51.8,525.7,o),
(51.8,528.5,o),
(51.8,532,cs),
(51.8,561.4,o),
(69.3,592.2,o),
(86.1,615.3,cs),
(92.4,624.4,o),
(98.7,637,o),
(107.8,643.3,cs),
(122.5,652.4,o),
(142.8,650.3,o),
(159.6,651.7,cs)
);
}
);
width = 347;
}
);
unicode = 1504;
},
{
color = 5;
glyphname = "samekh-hb";
lastChange = "2021-05-17 22:08:15 +0000";
layers = (
{
anchors = (
{
name = center;
pos = (303,303);
}
);
layerId = m01;
shapes = (
{
closed = 1;
nodes = (
(433,141,o),
(481,248,o),
(480.9,342.3,cs),
(481,446,o),
(429,462,o),
(200,462,cs),
(180,462,o),
(122,389,o),
(122,338,cs),
(122,247,o),
(162,140,o),
(327.6,140.7,cs)
);
},
{
closed = 1;
nodes = (
(40,-132,o),
(29,-106,o),
(29,-77,cs),
(29,-35,o),
(61,-7,o),
(61,297,cs),
(61,421,o),
(121,456,o),
(121,467,cs),
(121,480,o),
(60,488,o),
(60,530,cs),
(60,586,o),
(73,667,o),
(77,678,cs),
(82,692,o),
(102,699,o),
(116,699,cs),
(134,699,o),
(123,638,o),
(181,638,cs),
(236,638,o),
(290,645,o),
(329,645,cs),
(517,645,o),
(539,444,o),
(539,320.6,cs),
(539,151,o),
(455,-30,o),
(297,-32,cs),
(230,-32,o),
(163,10,o),
(140,64,cs),
(133,80,o),
(120,99,o),
(113,99,cs),
(104,99,o),
(102,87,o),
(102,77,cs),
(102,40,o),
(136,-39,o),
(136,-74,cs),
(136,-105,o),
(118,-132,o),
(76,-132,cs)
);
}
);
width = 580;
},
{
anchors = (
{
name = center;
pos = (303,303);
}
);
associatedMasterId = m01;
layerId = "196F75D4-B598-4791-8564-F8E607AE5824";
name = "May 12, 21, 15:33";
shapes = (
{
closed = 1;
nodes = (
(168,426.3,l),
(151.2,396.9,l),
(132.3,365.4,l),
(121.8,338.1,l),
(123.9,294,l),
(138.6,249.9,l),
(163.8,203.7,l),
(189,178.5,l),
(212.1,165.9,l),
(233.1,153.3,l),
(283.5,142.8,l),
(327.6,140.7,l),
(369.6,151.2,l),
(409.5,170.1,l),
(453.6,212.1,l),
(474.6,264.6,l),
(480.9,342.3,l),
(476.7,386.4,l),
(464.1,413.7,l),
(438.9,441,l),
(405.3,457.8,l),
(348.6,468.3,l),
(279.3,466.2,l),
(193.2,464.1,l)
);
},
{
closed = 1;
nodes = (
(105,94.5,o),
(104.3,84,o),
(104.3,72.8,cs),
(104.3,41.3,o),
(114.1,9.1,o),
(122.5,-20.3,cs),
(127.4,-38.5,o),
(133.7,-56,o),
(133.7,-74.2,cs),
(133.7,-83.3,o),
(132.3,-91.7,o),
(128.8,-100.1,cs),
(119,-124.6,o),
(97.3,-128.1,o),
(74.2,-128.1,cs),
(72.1,-128.1,ls),
(65.1,-128.1,o),
(54.6,-128.1,o),
(49,-123.9,cs),
(39.9,-117.6,o),
(35,-101.5,o),
(32.9,-91.7,cs),
(31.5,-84,o),
(30.8,-77,o),
(30.8,-70,cs),
(30.8,-28,o),
(53.2,14.7,o),
(56,55.3,cs),
(61.6,129.5,o),
(58.8,204.4,o),
(62.3,277.9,cs),
(63,302.4,o),
(61.6,327.6,o),
(63.7,352.1,c),
(64.4,353.5,o),
(64.4,354.2,o),
(64.4,355.6,cs),
(64.4,358.4,o),
(63.7,361.2,o),
(63.7,364,cs),
(63.7,366.1,o),
(64.4,368.9,o),
(65.1,371.7,cs),
(70.7,394.1,o),
(91,417.2,o),
(105,435.4,cs),
(109.2,441,o),
(121.8,452.2,o),
(122.5,459.2,cs),
(122.5,459.9,o),
(122.5,459.9,o),
(122.5,459.9,cs),
(122.5,466.2,o),
(103.6,474.6,o),
(99.4,477.4,cs),
(79.1,488.6,o),
(65.8,498.4,o),
(60.9,522.2,cs),
(59.5,531.3,o),
(58.8,541.1,o),
(58.8,550.2,cs),
(58.8,582.4,o),
(67,614,o),
(70.7,645.4,cs),
(74.9,676.9,ls),
(75,680,o),
(74.2,685.3,o),
(77,688.8,c),
(88.2,699.3,o),
(109.2,693.7,o),
(122.5,697.2,c),
(126.7,683.9,o),
(127.4,666.4,o),
(137.2,655.2,cs),
(150.5,641.2,o),
(168.7,639.8,o),
(186.9,638.4,cs),
(198.8,637.7,o),
(211.4,637.7,o),
(223.3,637.7,cs),
(234.5,637.7,o),
(245,637.7,o),
(255.5,637.7,cs),
(261.1,637.7,o),
(267.4,637.7,o),
(273,637.7,cs),
(345.8,637.7,o),
(430.5,635.6,o),
(478.8,575.4,cs),
(510.3,537.6,o),
(520.8,480.9,o),
(529.2,433.3,cs),
(535.5,396.9,o),
(539,359.1,o),
(539,320.6,cs),
(539,228.9,o),
(518.7,136.5,o),
(464.8,64.4,cs),
(429.8,18.2,o),
(384.3,-21.7,o),
(325.5,-30.1,cs),
(315.7,-31.5,o),
(306.6,-31.5,o),
(296.8,-31.5,cs),
(244.3,-31.5,o),
(197.4,-11.2,o),
(161.7,32.2,cs),
(152.6,43.4,o),
(144.2,55.3,o),
(137.2,67.9,cs),
(128.8,84,o),
(126,97.3,o),
(107.8,105,c)
);
}
);
width = 580;
}
);
unicode = 1505;
},
{
color = 5;
glyphname = "ayin-hb";
lastChange = "2021-05-17 22:08:15 +0000";
layers = (
{
layerId = m01;
shapes = (
{
closed = 1;
nodes = (
(36,-33,o),
(18,-27,o),
(18,24,cs),
(18,48,o),
(24,72,o),
(29,92,cs),
(33,113,o),
(36,141,o),
(56,141,cs),
(74,141,o),
(91,132,o),
(160,132,cs),
(172,132,o),
(178,139,o),
(178,151,cs),
(178,250,o),
(166,389,o),
(147,436,cs),
(137,461,o),
(76,483,o),
(76,528,cs),
(76,555,o),
(103,659,o),
(131,659,cs),
(172,659,o),
(242,604,o),
(242,566,cs),
(242,531,o),
(212,388,o),
(231,167,cs),
(233,146,o),
(239,140,o),
(261,140,cs),
(382,140,o),
(482,216,o),
(482,338,cs),
(482,417,o),
(427,452,o),
(379,461,cs),
(323,471,o),
(299,485,o),
(299,510,cs),
(299,548,o),
(347,658,o),
(386,658,cs),
(457,658,o),
(537,525,o),
(537,382,cs),
(537,121,o),
(384,-33,o),
(81,-33,cs)
);
}
);
width = 580;
},
{
associatedMasterId = m01;
layerId = "7000A208-15B8-4F9B-963D-73C913FFCF61";
name = "May 12, 21, 16:04";
shapes = (
{
closed = 1;
nodes = (
(254.8,144.2,o),
(277.2,148.4,o),
(299.6,151.9,cs),
(336.7,158.9,o),
(376.6,166.6,o),
(408.1,188.3,cs),
(451.5,218.4,o),
(482.3,280,o),
(482.3,338.1,cs),
(482.3,366.1,o),
(474.6,394.1,o),
(457.8,415.8,cs),
(433.3,448.7,o),
(396.9,457.1,o),
(359.8,466.2,cs),
(345.1,469.7,o),
(330.4,473.9,o),
(317.1,480.2,cs),
(312.2,483,o),
(305.9,485.1,o),
(302.4,490,c),
(300.3,494.2,o),
(298.9,498.4,o),
(298.9,503.3,cs),
(298.9,515.2,o),
(305.2,527.8,o),
(308.7,537.6,cs),
(319.9,570.5,o),
(329.7,607.6,o),
(352.1,634.9,cs),
(360.5,646.1,o),
(369.6,658,o),
(385,658.7,cs),
(385.7,658.7,o),
(386.4,658.7,o),
(387.1,658.7,cs),
(404.6,658.7,o),
(417.9,644.7,o),
(431.9,634.9,cs),
(480.2,602,o),
(511,543.2,o),
(525,487.2,cs),
(533.4,452.2,o),
(536.9,417.9,o),
(536.9,382.2,cs),
(536.9,247.8,o),
(482.3,95.9,o),
(357.7,28.7,cs),
(282.8,-11.9,o),
(196,-32.9,o),
(110.6,-32.9,cs),
(46,-33,o),
(18,-40,o),
(17.5,23.8,cs),
(17.5,47.6,o),
(23.8,72.1,o),
(28.7,92.4,cs),
(31.5,104.3,o),
(32.2,126,o),
(44.8,132.3,cs),
(46.9,133,o),
(49.7,133.7,o),
(53.2,133.7,cs),
(58.8,133.7,o),
(65.8,132.3,o),
(70.7,132.3,cs),
(86.8,132.3,o),
(102.2,132.3,o),
(117.6,132.3,cs),
(140.7,132.3,ls),
(142.1,132.3,o),
(142.8,132.3,o),
(144.2,132.3,cs),
(153.3,132.3,o),
(170.8,132.3,o),
(175,138.6,c),
(177.8,141.4,o),
(177.8,148.4,o),
(177.8,154.7,cs),
(177.8,158.2,o),
(177.8,162.4,o),
(177.8,165.2,cs),
(177.8,165.9,o),
(177.8,166.6,o),
(177.8,167.3,cs),
(177.8,172.2,o),
(178.5,177.1,o),
(178.5,182,cs),
(178.5,217,o),
(173.6,251.3,o),
(170.8,285.6,cs),
(168.7,322,o),
(165.9,357,o),
(158.2,392.7,cs),
(155.4,407.4,o),
(153.3,423.5,o),
(147.7,437.5,cs),
(143.5,447.3,o),
(129.5,455,o),
(121.8,462,cs),
(100.8,478.8,o),
(76.3,498.4,o),
(75.6,527.8,cs),
(75.6,528.5,o),
(75.6,529.2,o),
(75.6,529.2,cs),
(75.6,541.8,o),
(79.8,554.4,o),
(82.6,567,cs),
(88.2,588,o),
(93.1,609.7,o),
(102.9,629.3,cs),
(107.8,638.4,o),
(114.1,651.7,o),
(123.2,657.3,cs),
(125.3,658.7,o),
(128.8,659.4,o),
(132.3,659.4,cs),
(140.7,659.4,o),
(152.6,655.9,o),
(158.2,653.8,cs),
(168.7,650.3,o),
(177.1,643.3,o),
(185.5,637.7,cs),
(205.8,623,o),
(231.7,604.8,o),
(240.1,579.6,cs),
(241.5,574.7,o),
(242.2,570.5,o),
(242.2,565.6,cs),
(242.2,554.4,o),
(238.7,543.2,o),
(237.3,532,cs),
(233.8,501.9,o),
(230.3,472.5,o),
(228.2,442.4,cs),
(226.1,403.9,o),
(224.7,364.7,o),
(224.7,326.2,cs),
(224.7,264.6,o),
(227.5,203.7,o),
(232.4,142.8,c)
);
}
);
width = 580;
}
);
unicode = 1506;
},
{
color = 5;
glyphname = "peFinal-hb";
lastChange = "2021-05-17 22:08:15 +0000";
layers = (
{
anchors = (
{
name = center;
pos = (285,338);
}
);
layerId = m01;
shapes = (
{
closed = 1;
nodes = (
(348,-345,o),
(332,-328,o),
(332,-308,cs),
(333,-280,o),
(340,71,o),
(340,88,cs),
(340,281,o),
(401,344,o),
(401,372,cs),
(401,421,o),
(260,493,o),
(176,493,cs),
(135,493,o),
(104,436,o),
(104,396,cs),
(104,321,o),
(158,287,o),
(226,240,cs),
(243,228,o),
(254,196,o),
(254,147,cs),
(254,124,o),
(224,112,o),
(179,112,cs),
(75,112,o),
(38,212,o),
(38,319,cs),
(38,465,o),
(129,640,o),
(244,640,cs),
(334,640,o),
(492,566,o),
(492,501,cs),
(492,439,o),
(432,310,o),
(432,196,cs),
(432,81,o),
(476,-125,o),
(476,-223,cs),
(476,-278,o),
(393,-344,o),
(370,-345,cs)
);
}
);
width = 541;
},
{
anchors = (
{
name = center;
pos = (274,308);
}
);
associatedMasterId = m01;
layerId = "8C6F933C-5571-43C5-955C-782E1B292B83";
name = "May 12, 21, 16:42";
shapes = (
{
closed = 1;
nodes = (
(348,-345,o),
(332,-328,o),
(332,-308,cs),
(333,-280,o),
(340.2,71.4,o),
(340.2,88.2,cs),
(340.2,138.6,o),
(341.6,189.7,o),
(355.6,238,cs),
(363.3,268.8,o),
(373.8,298.2,o),
(385,327.6,cs),
(389.9,338.8,o),
(401.1,356.3,o),
(401.1,368.2,cs),
(401.1,368.9,o),
(401.1,368.9,o),
(401.1,369.6,cs),
(399.7,389.9,o),
(379.4,408.8,o),
(364.7,420.7,cs),
(319.9,457.8,o),
(270.2,482.3,o),
(212.1,489.3,cs),
(201.6,490,o),
(188.3,492.8,o),
(176.4,492.8,cs),
(171.5,492.8,o),
(166.6,492.8,o),
(162.4,491.4,cs),
(147.7,485.8,o),
(131.6,466.9,o),
(122.5,455,cs),
(109.2,437.5,o),
(103.6,417.2,o),
(103.6,396.2,cs),
(103.6,373.1,o),
(111.3,348.6,o),
(123.2,328.3,cs),
(136.5,308,o),
(155.4,290.5,o),
(174.3,275.8,cs),
(193.2,260.4,o),
(218.4,249.9,o),
(233.8,230.3,cs),
(248.5,211.4,o),
(249.2,190.4,o),
(252,167.3,cs),
(252.7,161,o),
(254.8,152.6,o),
(254.8,144.9,cs),
(254.8,142.1,o),
(254.8,140,o),
(254.1,137.9,cs),
(252.7,133.7,o),
(247.1,130.9,o),
(244.3,128.8,cs),
(233.1,122.5,o),
(221.2,117.6,o),
(209.3,114.8,cs),
(199.5,112.7,o),
(190.4,112,o),
(181.3,112,cs),
(77,112,o),
(39,212,o),
(39,319,cs),
(38,398,o),
(58.8,471.8,o),
(102.2,539.7,cs),
(124.6,575.4,o),
(155.4,605.5,o),
(193.2,624.4,cs),
(205.1,630,o),
(219.1,637.7,o),
(232.4,639.1,cs),
(235.9,639.8,o),
(240.1,639.8,o),
(243.6,639.8,cs),
(258.3,639.8,o),
(273.7,637,o),
(287,634.9,cs),
(343,625.8,o),
(396.9,602,o),
(441.7,566.3,cs),
(455.7,554.4,o),
(469,542.5,o),
(480.2,527.8,cs),
(484.4,523.6,o),
(490,518,o),
(491.4,512.4,cs),
(492.1,511,o),
(492.1,508.9,o),
(492.1,506.8,cs),
(492.1,502.6,o),
(491.4,497.7,o),
(490.7,494.2,cs),
(489.3,474.6,o),
(484.4,455.7,o),
(479.5,437.5,cs),
(464.1,378,o),
(443.8,322,o),
(436.1,260.4,cs),
(432.6,238.7,o),
(431.9,217,o),
(431.9,196,cs),
(431.9,151.2,o),
(436.8,107.1,o),
(443.1,61.6,cs),
(451,-2,o),
(476,-158,o),
(476,-223.3,cs),
(476,-257,o),
(446,-294,o),
(417.2,-317.1,cs),
(405.3,-326.2,o),
(385.7,-344.4,o),
(370.3,-345.1,cs)
);
}
);
width = 541;
}
);
unicode = 1507;
},
{
color = 5;
glyphname = "pe-hb";
lastChange = "2021-05-17 22:08:15 +0000";
layers = (
{
anchors = (
{
name = center;
pos = (338,316);
}
);
layerId = m01;
shapes = (
{
closed = 1;
nodes = (
(84,-37,o),
(67,-29,o),
(67,0,cs),
(67,106,o),
(79,130,o),
(111,130,cs),
(174,130,o),
(347,142,o),
(405,184,cs),
(462,225,o),
(476,284,o),
(475,351,cs),
(472,451,o),
(389,461,o),
(258,461,cs),
(210,461,o),
(167,440,o),
(167,391,cs),
(167,365,o),
(216,345,o),
(216,313,cs),
(216,289,o),
(175,221,o),
(130,221,cs),
(102,221,o),
(58,269,o),
(58,322,cs),
(58,361,o),
(88,396,o),
(116,428,cs),
(125,438,o),
(131,446,o),
(131,452,cs),
(131,457,o),
(129,464,o),
(118,467,cs),
(94,474,o),
(64,509,o),
(64,559,cs),
(64,586,o),
(79,670,o),
(84,676,cs),
(94,688,o),
(114,694,o),
(123,694,cs),
(131,694,o),
(134,690,o),
(136,678,cs),
(141,642,o),
(180,631,o),
(215,631,cs),
(273,631,o),
(356,634,o),
(413,615,cs),
(513,584,o),
(531,428,o),
(531,358,cs),
(531,126,o),
(389,-37,o),
(115,-37,cs)
);
}
);
width = 580;
},
{
anchors = (
{
name = center;
pos = (336,325);
}
);
associatedMasterId = m01;
layerId = "5E5D7B9F-DCC2-4810-8E2C-4E09EBA9363D";
name = "May 12, 21, 17:53";
shapes = (
{
closed = 1;
nodes = (
(139.3,678.3,o),
(135.8,662.9,o),
(150.5,649.6,cs),
(172.9,629.3,o),
(207.2,632.8,o),
(234.5,630.7,cs),
(293.3,626.5,o),
(355.6,633.5,o),
(413,615.3,cs),
(490.7,590.8,o),
(517.3,496.3,o),
(525.7,424.2,cs),
(527.8,410.2,o),
(529.2,396.2,o),
(529.9,382.2,cs),
(529.9,374.5,o),
(530.6,366.1,o),
(530.6,358.4,cs),
(530.6,270.2,o),
(508.2,175.7,o),
(454.3,105,cs),
(413,50.4,o),
(344.4,7.7,o),
(280,-14,cs),
(240.1,-27.3,o),
(195.3,-37.1,o),
(151.9,-37.1,cs),
(140.7,-37.1,o),
(130.2,-37.1,o),
(119.7,-35.7,cs),
(105.7,-33.6,o),
(78.4,-35,o),
(70.7,-20.3,cs),
(68.6,-16.1,o),
(67.9,-11.2,o),
(67.9,-5.6,cs),
(67.9,2.8,ls),
(67.9,4.9,o),
(67.9,6.3,o),
(67.9,7.7,cs),
(67.2,15.4,o),
(66.5,22.4,o),
(66.5,30.1,cs),
(66.5,51.1,o),
(69.3,72.8,o),
(74.2,93.1,cs),
(76.3,103.6,o),
(79.8,121.1,o),
(90.3,126.7,cs),
(95.2,128.8,o),
(102.9,129.5,o),
(109.9,129.5,cs),
(120.4,129.5,ls),
(121.1,129.5,o),
(122.5,129.5,o),
(123.2,129.5,cs),
(142.8,130.2,o),
(162.4,132.3,o),
(182,133,cs),
(255.5,138.6,o),
(341.6,139.3,o),
(404.6,184.1,cs),
(451.5,217.7,o),
(475.3,272.3,o),
(475.3,329,cs),
(475.3,336,o),
(475.3,343.7,o),
(474.6,350.7,cs),
(471.1,385,o),
(457.8,420.7,o),
(428.4,441,cs),
(410.2,454.3,o),
(378,457.8,o),
(355.6,460.6,cs),
(333.9,464.1,o),
(312.2,465.5,o),
(290.5,465.5,cs),
(278.6,465.5,o),
(266,464.8,o),
(253.4,464.1,cs),
(240.8,462.7,o),
(225.4,463.4,o),
(214.2,458.5,cs),
(192.5,448.7,o),
(167,416,o),
(167.3,392.7,cs),
(167.3,390.6,ls),
(167.3,382.2,o),
(173.6,373.8,o),
(178.5,367.5,cs),
(191.8,350.7,o),
(215.6,336.7,o),
(215.6,312.9,cs),
(215.6,312.2,o),
(215.6,310.8,o),
(215.6,310.1,cs),
(214.9,298.9,o),
(208.6,289.8,o),
(203,280,cs),
(191.1,260.4,o),
(177.8,237.3,o),
(156.8,227.5,cs),
(149.8,224,o),
(138.6,220.5,o),
(129.5,220.5,cs),
(126.7,220.5,o),
(123.9,220.5,o),
(121.8,221.9,cs),
(108.5,226.8,o),
(96.6,239.4,o),
(87.5,249.9,cs),
(70.7,270.2,o),
(58.8,295.4,o),
(58.8,322,cs),
(58.8,329.7,o),
(59.5,337.4,o),
(61.6,345.1,cs),
(66.5,361.9,o),
(75.6,376.6,o),
(86.1,390.6,cs),
(96.6,405.3,o),
(109.2,417.9,o),
(121.1,431.9,cs),
(124.6,436.1,o),
(133,442.4,o),
(133.7,448,cs),
(133.7,448.7,o),
(133.7,448.7,o),
(133.7,448.7,cs),
(133.7,459.2,o),
(114.8,460.6,o),
(107.8,464.1,cs),
(95.2,469.7,o),
(84.7,485.1,o),
(78.4,497,cs),
(67.9,515.9,o),
(63.7,536.9,o),
(63.7,558.6,cs),
(63.7,585.9,o),
(70,614.6,o),
(74.9,640.5,cs),
(77,651.7,o),
(79.1,662.9,o),
(81.2,673.4,cs),
(81.9,677.6,o),
(81.9,683.9,o),
(85.4,686.7,cs),
(88.9,690.2,o),
(96.6,690.2,o),
(100.8,690.2,cs),
(111.3,690.9,o),
(122.5,690.2,o),
(132.3,694.4,c)
);
}
);
width = 580;
}
);
unicode = 1508;
},
{
color = 5;
glyphname = "tsadiFinal-hb";
lastChange = "2021-05-17 22:08:15 +0000";
layers = (
{
layerId = m01;
shapes = (
{
closed = 1;
nodes = (
(142,-340,o),
(125,-243,o),
(125,-168,cs),
(125,-58,o),
(198,396,o),
(198,449,cs),
(198,458,o),
(195,465,o),
(185,466,cs),
(118,470,o),
(20,489,o),
(20,596,cs),
(20,631,o),
(37,692,o),
(56,692,cs),
(66,692,o),
(96,630,o),
(216,630,cs),
(334,630,o),
(365,694,o),
(378,694,cs),
(384,694,o),
(391,682,o),
(391,627,cs),
(391,489,o),
(286,479,o),
(274,474,cs),
(264,470,o),
(260,465,o),
(259,458,cs),
(253,416,o),
(244,321,o),
(244,253,cs),
(244,52,o),
(279,25,o),
(279,-118,cs),
(279,-187,o),
(211,-341,o),
(179,-341,cs)
);
}
);
width = 426;
},
{
associatedMasterId = m01;
layerId = "9ECDFDD9-2BBA-47F7-ADAE-52AA663689D0";
name = "May 12, 21, 22:51";
shapes = (
{
closed = 1;
nodes = (
(389.2,681.1,o),
(389.9,658.7,o),
(390.6,643.3,cs),
(391.3,637.7,o),
(391.3,632.1,o),
(391.3,626.5,cs),
(391.3,581,o),
(378,534.8,o),
(341.6,505.4,cs),
(326.2,493.5,o),
(308,484.4,o),
(289.8,478.1,cs),
(282.8,476,o),
(266.7,473.9,o),
(262.5,468.3,cs),
(256.9,460.6,o),
(257.6,443.1,o),
(256.2,433.3,cs),
(247.1,373.8,o),
(243.6,313.6,o),
(243.6,253.4,cs),
(243.6,232.4,o),
(244.3,210.7,o),
(245,189.7,cs),
(245.7,166.6,o),
(245,142.8,o),
(247.1,119.7,cs),
(249.2,100.1,o),
(254.8,80.5,o),
(258.3,61.6,cs),
(268.1,5.6,o),
(277.9,-51.1,o),
(277.9,-107.1,cs),
(277.9,-117.6,o),
(277.9,-127.4,o),
(277.2,-137.2,cs),
(275.8,-160.3,o),
(267.4,-182,o),
(259.7,-203,cs),
(249.2,-231.7,o),
(237.3,-260.4,o),
(224,-287.7,cs),
(217.7,-300.3,o),
(210,-312.2,o),
(200.9,-323.4,cs),
(197,-328,o),
(194,-335,o),
(188,-338,cs),
(185,-340,o),
(182,-342,o),
(179.2,-341.6,cs),
(168.7,-341.6,o),
(161.7,-329,o),
(156.1,-320.6,cs),
(137.9,-294.7,o),
(132.3,-256.9,o),
(128.8,-225.4,cs),
(126,-206.5,o),
(125.3,-186.9,o),
(125.3,-168,cs),
(125.3,-112,o),
(133.7,-56.7,o),
(142.8,-0.7,cs),
(150.5,51.8,o),
(156.8,105,o),
(163.1,157.5,cs),
(170.8,222.6,o),
(180.6,287.7,o),
(188.3,352.8,cs),
(193.2,389.9,o),
(194.6,429.8,o),
(203,465.5,c),
(149.1,465.5,o),
(85.4,473.9,o),
(46.9,516.6,cs),
(27.3,537.6,o),
(20.3,566.3,o),
(20.3,595.7,cs),
(20.3,612.5,o),
(23.1,630,o),
(26.6,645.4,cs),
(30.8,660.1,o),
(39.9,683.9,o),
(53.2,691.6,c),
(53.9,691.6,o),
(54.6,691.6,o),
(55.3,691.6,cs),
(61.6,691.6,o),
(72.1,677.6,o),
(75.6,674.1,cs),
(97.3,655.9,o),
(122.5,643.3,o),
(149.8,637.7,cs),
(170.8,632.8,o),
(193.2,630,o),
(216.3,630,cs),
(245.7,630,o),
(274.4,634.2,o),
(300.3,643.3,cs),
(328.3,653.8,o),
(358.4,674.8,o),
(380.8,694.4,c)
);
}
);
width = 426;
}
);
unicode = 1509;
},
{
color = 5;
glyphname = "tsadi-hb";
lastChange = "2021-05-17 22:08:15 +0000";
layers = (
{
anchors = (
{
name = center;
pos = (136,320);
}
);
layerId = m01;
shapes = (
{
closed = 1;
nodes = (
(34,-36,o),
(29,-3,o),
(29,24,cs),
(29,106,o),
(40,140,o),
(75,148,cs),
(179,172,o),
(282,198,o),
(282,323,cs),
(282,419,o),
(226,454,o),
(117,471,cs),
(78,477,o),
(62,506,o),
(62,562,cs),
(62,630,o),
(103,664,o),
(141,717,cs),
(156,738,o),
(170,774,o),
(186,800,cs),
(200,822,o),
(224,830,o),
(266,830,cs),
(298,830,o),
(341,817,o),
(341,780,cs),
(341,729,o),
(223,691,o),
(184,664,cs),
(162,649,o),
(158,635,o),
(158,630,cs),
(158,625,o),
(164,624,o),
(176,622,cs),
(197,619,o),
(231,611,o),
(260,587,cs),
(312,544,o),
(337,458,o),
(337,344,cs),
(337,155,o),
(247,-36,o),
(53,-36,cs)
);
}
);
width = 387;
},
{
anchors = (
{
name = center;
pos = (136,320);
}
);
associatedMasterId = m01;
layerId = "E148B189-9BC9-4CAD-AC03-66717FC8A791";
name = "May 12, 21, 23:10";
shapes = (
{
closed = 1;
nodes = (
(177.1,622.3,o),
(200.9,621.6,o),
(219.8,613.2,cs),
(293.3,580.3,o),
(321.3,501.9,o),
(331.8,427.7,cs),
(335.3,400.4,o),
(337.4,372.4,o),
(337.4,344.4,cs),
(337.4,250.6,o),
(315,156.8,o),
(262.5,78.4,cs),
(233.8,35.7,o),
(186.9,-7.7,o),
(137.2,-25.2,cs),
(123.2,-30.1,o),
(107.8,-31.5,o),
(93.1,-32.9,cs),
(82.6,-34.3,o),
(71.4,-36.4,o),
(60.2,-36.4,cs),
(56.7,-36.4,o),
(53.9,-36.4,o),
(50.4,-35.7,cs),
(37.1,-33.6,o),
(32.2,-7,o),
(30.8,4.2,cs),
(29.4,10.5,o),
(29.4,16.8,o),
(29.4,23.8,cs),
(29.4,35,o),
(30.1,46.2,o),
(30.8,57.4,cs),
(32.9,82.6,o),
(32.2,109.2,o),
(47.6,131.6,cs),
(55.3,142.1,o),
(66.5,143.5,o),
(78.4,147,cs),
(95.9,150.5,o),
(112.7,154.7,o),
(129.5,159.6,cs),
(189,176.4,o),
(245,198.8,o),
(269.5,260.4,cs),
(277.9,280,o),
(282.1,301.7,o),
(282.1,323.4,cs),
(282.1,375.9,o),
(257.6,428.4,o),
(205.8,448,cs),
(179.2,457.8,o),
(150.5,462.7,o),
(122.5,469.7,cs),
(109.9,472.5,o),
(91.7,476,o),
(81.9,485.1,cs),
(74.9,491.4,o),
(70.7,506.1,o),
(68.6,515.2,cs),
(64.4,529.9,o),
(62.3,546,o),
(62.3,562.1,cs),
(62.3,575.4,o),
(63.7,588,o),
(67.2,600.6,cs),
(74.9,633.5,o),
(93.8,653.1,o),
(114.1,678.3,cs),
(130.2,698.6,o),
(144.9,720.3,o),
(157.5,742.7,cs),
(171.5,770,o),
(179.9,802.2,o),
(209.3,817.6,cs),
(224.7,826,o),
(245.7,830.2,o),
(266,830.2,cs),
(281.4,830.2,o),
(296.8,827.4,o),
(310.1,821.8,cs),
(327.6,813.4,o),
(340.9,798.7,o),
(340.9,779.8,cs),
(340.9,775.6,o),
(340.2,771.4,o),
(338.8,767.2,cs),
(331.8,746.2,o),
(311.5,734.3,o),
(294.7,721.7,cs),
(258.3,694.4,o),
(212.8,684.6,o),
(179.2,653.8,cs),
(169.4,645.4,o),
(163.1,635.6,o),
(156.8,625.1,c)
);
}
);
width = 387;
}
);
unicode = 1510;
},
{
color = 5;
glyphname = "qof-hb";
lastChange = "2021-05-17 22:08:15 +0000";
layers = (
{
anchors = (
{
name = center;
pos = (311,290);
}
);
layerId = m01;
shapes = (
{
closed = 1;
nodes = (
(166,376,o),
(159,381,o),
(148,381,cs),
(132,381,o),
(102,351,o),
(77,259,cs),
(66,219,o),
(61,155,o),
(61,-276,cs),
(61,-327,o),
(66,-346,o),
(94,-346,cs),
(146,-346,o),
(199,-290,o),
(199,-218,cs),
(199,-73,o),
(153,88,o),
(153,198,cs),
(153,305,o),
(166,343,o),
(166,365,cs)
);
},
{
closed = 1;
nodes = (
(101,686,o),
(85,680,o),
(78,670,cs),
(72,662,o),
(60,600,o),
(60,540,cs),
(60,470,o),
(98,455,o),
(166,455,cs),
(222,455,o),
(269,463,o),
(319,463,cs),
(428,463,o),
(473,409,o),
(473,313,cs),
(473,221,o),
(405,141,o),
(366,118,cs),
(318,90,o),
(303,78,o),
(303,51,cs),
(303,36,o),
(317,16,o),
(342,16,cs),
(398,16,o),
(452,62,o),
(476,109,cs),
(512,180,o),
(529,263,o),
(529,343,cs),
(529,443,o),
(516,632,o),
(336,632,cs),
(301,632,o),
(254,627,o),
(221,627,cs),
(190,627,o),
(140,630,o),
(130,659,cs),
(124,677,o),
(121,686,o),
(112,686,cs)
);
}
);
width = 580;
},
{
anchors = (
{
name = center;
pos = (311,290);
}
);
associatedMasterId = m01;
layerId = "0EC9E1D3-4CD9-4863-90F3-CCFF2C50AD96";
name = "May 12, 21, 23:30";
shapes = (
{
closed = 1;
nodes = (
(137.2,382.2,ls),
(135.1,382.2,o),
(132.3,382.2,o),
(129.5,382.2,cs),
(126.7,382.2,o),
(124.6,382.2,o),
(123.2,380.8,c),
(114.8,375.9,o),
(109.2,358.4,o),
(105.7,350,cs),
(91.7,318.5,o),
(81.2,286.3,o),
(74.2,252.7,cs),
(64.4,203,o),
(63,152.6,o),
(63,102.2,cs),
(63,84,o),
(63,66.5,o),
(63,48.3,cs),
(63,44.8,o),
(63,40.6,o),
(63,37.1,cs),
(63,-11.2,o),
(60.9,-59.5,o),
(60.9,-107.1,cs),
(60.9,-126,o),
(61.6,-145.6,o),
(62.3,-164.5,cs),
(63,-182,o),
(64.4,-200.2,o),
(64.4,-218.4,cs),
(64.4,-222.6,o),
(64.4,-226.1,o),
(64.4,-230.3,cs),
(63.7,-245.7,o),
(62.3,-261.1,o),
(62.3,-276.5,cs),
(62.3,-283.5,o),
(62.3,-289.8,o),
(63,-296.8,cs),
(64.4,-309.4,o),
(62.3,-331.1,o),
(74.2,-339.5,cs),
(80.5,-343.7,o),
(86.8,-345.8,o),
(93.8,-345.8,cs),
(107.8,-345.8,o),
(122.5,-338.1,o),
(134.4,-330.4,cs),
(159.6,-315.7,o),
(186.2,-291.9,o),
(194.6,-262.5,cs),
(198.1,-249.2,o),
(198.1,-231.7,o),
(198.1,-217.7,cs),
(198.8,-211.4,o),
(198.8,-205.1,o),
(198.8,-198.8,cs),
(198.8,-123.2,o),
(188.3,-48.3,o),
(175.7,26.6,cs),
(169.4,65.1,o),
(159.6,104.3,o),
(155.4,144.2,cs),
(154,161.7,o),
(153.3,179.9,o),
(153.3,198.1,cs),
(153.3,213.5,o),
(154,229.6,o),
(154.7,245,cs),
(156.8,290.5,o),
(159.6,337.4,o),
(172.2,382.2,c)
);
},
{
closed = 1;
nodes = (
(105,684.6,o),
(84,687.4,o),
(75.6,678.3,cs),
(72.1,674.8,o),
(72.1,667.8,o),
(71.4,662.9,cs),
(69.3,651,o),
(67.2,638.4,o),
(65.8,625.8,cs),
(63,600.6,o),
(60.2,574.7,o),
(60.2,549.5,cs),
(60.2,546,o),
(60.2,543.2,o),
(60.2,540.4,cs),
(60.9,515.9,o),
(63,494.2,o),
(82.6,476.7,cs),
(105,456.4,o),
(137.2,455,o),
(165.9,455,cs),
(171.5,455,o),
(176.4,455,o),
(180.6,455,cs),
(196,455,o),
(211.4,455.7,o),
(226.8,457.1,cs),
(255.5,459.2,o),
(287.7,462.7,o),
(318.5,462.7,cs),
(373.1,462.7,o),
(425.6,451.5,o),
(455.7,399.7,cs),
(466.9,380.1,o),
(469.7,356.3,o),
(471.8,334.6,cs),
(472.5,326.9,o),
(472.5,319.9,o),
(472.5,312.9,cs),
(472.5,244.3,o),
(441.7,179.2,o),
(390.6,133.7,cs),
(366.8,111.3,o),
(329,108.5,o),
(307.3,82.6,cs),
(301.7,75.6,o),
(296.1,63,o),
(296.1,51.8,cs),
(296.1,47.6,o),
(296.8,43.4,o),
(298.9,39.9,cs),
(303.1,32.9,o),
(310.1,28.7,o),
(317.1,24.5,cs),
(321.3,21.7,o),
(326.2,17.5,o),
(331.8,16.8,cs),
(335.3,16.1,o),
(338.8,16.1,o),
(342.3,16.1,cs),
(398.3,16.1,o),
(451.5,61.6,o),
(476,109.2,cs),
(511.7,181.3,o),
(529.2,262.5,o),
(529.2,343,cs),
(529.2,366.8,o),
(527.8,390.6,o),
(525,414.4,cs),
(520.8,443.1,o),
(515.2,471.8,o),
(506.1,499.8,cs),
(495.6,529.9,o),
(482.3,562.8,o),
(461.3,587.3,cs),
(437.5,614.6,o),
(403.2,624.4,o),
(368.2,627.9,cs),
(353.5,630,o),
(338.1,630.7,o),
(322.7,630.7,cs),
(288.4,630.7,o),
(254.1,627.2,o),
(220.5,627.2,cs),
(203.7,627.2,o),
(187.6,627.9,o),
(170.8,630,cs),
(154.7,632.8,o),
(138.6,641.2,o),
(130.9,656.6,cs),
(126.7,663.6,o),
(128.1,686,o),
(117.6,686,cs),
(116.9,686,ls)
);
}
);
width = 580;
}
);
unicode = 1511;
},
{
color = 5;
glyphname = "resh-hb";
lastChange = "2021-05-17 22:08:15 +0000";
layers = (
{
anchors = (
{
name = center;
pos = (270,329);
}
);
layerId = m01;
shapes = (
{
closed = 1;
nodes = (
(243,-25,o),
(231,-2,o),
(231,19,cs),
(231,51,o),
(283,94,o),
(305,118,cs),
(349,169,o),
(397,243,o),
(397,333,cs),
(397,439,o),
(336,471,o),
(230,471,cs),
(197,471,o),
(160,466,o),
(128,466,cs),
(27,466,o),
(21,515,o),
(21,576,cs),
(21,605,o),
(29,676,o),
(35,686,cs),
(39,693,o),
(57,697,o),
(69,697,cs),
(77,697,o),
(81,688,o),
(87,667,cs),
(92,650,o),
(103,634,o),
(175,634,cs),
(202,634,o),
(229,637,o),
(255,637,cs),
(430,637,o),
(454,457,o),
(454,340,cs),
(454,218,o),
(396,-25,o),
(279,-25,cs)
);
}
);
width = 501;
},
{
anchors = (
{
name = center;
pos = (190,297);
}
);
associatedMasterId = m01;
layerId = "09DF9D5C-4054-429F-8739-5040694BA60A";
name = "May 13, 21, 01:02";
shapes = (
{
closed = 1;
nodes = (
(39.2,697.2,o),
(46.2,697.2,o),
(52.5,697.2,cs),
(63,697.2,ls),
(65.1,697.2,o),
(68.6,697.9,o),
(71.4,697.9,cs),
(72.8,697.9,o),
(74.2,697.9,o),
(74.9,697.2,cs),
(79.8,693.7,o),
(80.5,681.1,o),
(82.6,675.5,cs),
(87.5,658,o),
(95.9,644.7,o),
(114.8,639.8,cs),
(134.4,634.9,o),
(154.7,633.5,o),
(175,633.5,cs),
(201.6,633.5,o),
(228.9,635.6,o),
(254.8,635.6,cs),
(287,635.6,o),
(317.8,632.1,o),
(347.2,617.4,cs),
(389.9,595,o),
(414.4,541.8,o),
(429.1,497.7,cs),
(445.9,448,o),
(453.6,394.1,o),
(453.6,339.5,cs),
(453.6,273,o),
(441.7,205.8,o),
(421.4,144.9,cs),
(408.8,105.7,o),
(393.4,67.9,o),
(370.3,34.3,cs),
(358.4,16.1,o),
(345.8,-0.7,o),
(326.9,-11.2,cs),
(312.9,-18.9,o),
(295.4,-25.2,o),
(278.6,-25.2,cs),
(263.2,-25.2,o),
(249.2,-20.3,o),
(240.8,-7,cs),
(234.5,2.1,o),
(231,12.6,o),
(231,23.8,cs),
(231,35,o),
(234.5,46.2,o),
(241.5,55.3,cs),
(250.6,67.2,o),
(264.6,76.3,o),
(275.1,86.8,cs),
(285.6,96.6,o),
(295.4,107.8,o),
(304.5,118.3,cs),
(357,180.6,o),
(396.9,249.2,o),
(396.9,332.5,cs),
(396.9,372.4,o),
(388.5,410.9,o),
(357.7,438.2,cs),
(336.7,457.1,o),
(306.6,465.5,o),
(279.3,468.3,cs),
(262.5,470.4,o),
(246.4,471.1,o),
(229.6,471.1,cs),
(196.7,471.1,o),
(163.8,468.3,o),
(131.6,468.3,cs),
(92.4,468.3,o),
(44.8,471.8,o),
(27.3,514.5,cs),
(23.8,521.5,o),
(23.8,530.6,o),
(23.1,538.3,cs),
(21.7,550.9,o),
(21,563.5,o),
(21,576.1,cs),
(21,585.2,o),
(21,593.6,o),
(21.7,602.7,cs),
(21.7,634.2,o),
(28,665.7,o),
(32.2,697.2,c)
);
}
);
width = 501;
}
);
unicode = 1512;
},
{
color = 5;
glyphname = "shin-hb";
lastChange = "2021-05-17 22:08:15 +0000";
layers = (
{
anchors = (
{
name = bottom;
pos = (313,-12);
},
{
name = bottomleft;
pos = (44,0);
},
{
name = center;
pos = (310,327);
},
{
name = top;
pos = (319,685);
},
{
name = topleft;
pos = (140,615);
},
{
name = topright;
pos = (501,629);
}
);
layerId = m01;
shapes = (
{
closed = 1;
nodes = (
(83,-89,o),
(79,-82,o),
(79,-72,cs),
(79,-13,o),
(103,241,o),
(103,454,cs),
(103,466,o),
(97,474,o),
(89,476,cs),
(71,480,o),
(47,489,o),
(47,505,cs),
(47,519,o),
(113,685,o),
(122,694,cs),
(128,700,o),
(143,702,o),
(159,702,cs),
(170,702,o),
(171,678,o),
(180,662,cs),
(191,641,o),
(218,635,o),
(328,635,cs),
(386,635,o),
(450,640,o),
(468,683,cs),
(473,695,o),
(492,702,o),
(509,702,cs),
(518,702,o),
(522,695,o),
(522,679,cs),
(522,593,o),
(486,464,o),
(352,464,cs),
(316,464,o),
(250,474,o),
(214,474,cs),
(179,474,o),
(169,470,o),
(169,455,cs),
(169,381,o),
(162,210,o),
(162,184,cs),
(162,169,o),
(185,160,o),
(300,160,cs),
(399,160,o),
(452,210,o),
(468,337,cs),
(469,347,o),
(494,355,o),
(509,355,cs),
(517,355,o),
(522,349,o),
(522,342,cs),
(522,183,o),
(492,-7,o),
(313,-7,cs),
(290,-7,o),
(223,3,o),
(198,3,cs),
(148,3,o),
(163,-46,o),
(136,-77,cs),
(127,-88,o),
(113,-89,o),
(99,-89,cs)
);
}
);
width = 580;
},
{
anchors = (
{
name = bottom;
pos = (313,-7);
},
{
name = bottomleft;
pos = (44,0);
},
{
name = center;
pos = (310,317);
},
{
name = top;
pos = (319,685);
},
{
name = topleft;
pos = (140,615);
},
{
name = topright;
pos = (501,629);
}
);
associatedMasterId = m01;
layerId = "6C5F62C7-E032-4855-B704-3C16E4641CDE";
name = "May 13, 21, 01:24";
shapes = (
{
closed = 1;
nodes = (
(169.4,702.1,l),
(169.4,676.2,o),
(178.5,653.1,o),
(204.4,643.3,cs),
(212.1,639.8,o),
(221.9,640.5,o),
(230.3,639.8,cs),
(244.3,638.4,o),
(257.6,637.7,o),
(271.6,637,cs),
(289.8,635.6,o),
(308.7,634.9,o),
(328.3,634.9,cs),
(356.3,634.9,o),
(384.3,637,o),
(412.3,642.6,cs),
(439.6,648.9,o),
(466.9,669.2,o),
(472.5,697.9,c),
(524.3,697.9,l),
(524.3,670.6,o),
(516.6,640.5,o),
(509.6,614.6,cs),
(502.6,589.4,o),
(494.9,564.2,o),
(484.4,540.4,cs),
(480.9,532,o),
(477.4,520.8,o),
(471.1,513.1,cs),
(452.9,492.8,o),
(420.7,482.3,o),
(394.8,476,cs),
(370.3,469.7,o),
(346.5,468.3,o),
(322,468.3,cs),
(285.6,468.3,o),
(249.9,471.8,o),
(213.5,471.8,cs),
(198.8,471.8,o),
(184.1,471.1,o),
(169.4,469.7,c),
(169.4,396.2,o),
(164.5,323.4,o),
(164.5,249.9,cs),
(164.5,249.2,ls),
(164.5,245.7,o),
(164.5,242.2,o),
(164.5,238,cs),
(164.5,224.7,o),
(164.5,211.4,o),
(162.4,198.1,cs),
(162.4,196,o),
(161.7,191.1,o),
(161.7,186.2,cs),
(161.7,182,o),
(162.4,178.5,o),
(163.8,176.4,cs),
(168.7,171.5,o),
(181.3,170.1,o),
(187.6,168.7,cs),
(210.7,163.8,o),
(233.1,163.8,o),
(256.9,162.4,cs),
(270.9,161,o),
(285.6,160.3,o),
(299.6,160.3,cs),
(322.7,160.3,o),
(345.1,162.4,o),
(367.5,170.8,cs),
(439.6,198.8,o),
(465.5,284.2,o),
(468.3,354.9,c),
(522.2,354.9,l),
(522.2,277.2,o),
(513.8,198.1,o),
(489.3,124.6,cs),
(480.2,98,o),
(469.7,66.5,o),
(452.2,44.8,cs),
(433.3,21.7,o),
(404.6,8.4,o),
(376.6,0.7,cs),
(355.6,-4.9,o),
(334.6,-7,o),
(312.9,-7,cs),
(289.8,-7,o),
(266.7,-4.9,o),
(244.3,-2.8,cs),
(230.3,-1.4,o),
(213.5,2.8,o),
(198.8,2.8,cs),
(193.2,2.8,o),
(187.6,2.1,o),
(182.7,0.7,cs),
(149.1,-10.5,o),
(156.1,-53.9,o),
(135.8,-77,cs),
(126.7,-87.5,o),
(112.7,-88.9,o),
(99.4,-88.9,cs),
(91.7,-88.9,o),
(84.7,-88.2,o),
(77.7,-88.2,c),
(79.1,-81.9,o),
(79.8,-74.9,o),
(79.8,-67.9,cs),
(79.8,-65.1,o),
(79.8,-61.6,o),
(79.8,-58.1,cs),
(79.8,-49.7,ls),
(80,-22,o),
(82.6,4.9,o),
(83.3,32.2,cs),
(87.5,113.4,o),
(91.7,195.3,o),
(95.2,277.2,cs),
(97.3,318.5,o),
(98.7,360.5,o),
(100.8,401.8,cs),
(102.2,415.1,o),
(102.2,428.4,o),
(102.9,442.4,cs),
(103.6,448.7,o),
(105,456.4,o),
(105,463.4,cs),
(105,465.5,o),
(105,467.6,o),
(104.3,469.7,cs),
(103.6,475.3,o),
(93.1,476.7,o),
(88.2,478.1,cs),
(76.3,481.6,o),
(46.9,487.9,o),
(46.9,505.4,c),
(46.9,505.4,l),
(46.9,511,o),
(51,517,o),
(52.5,522.2,cs),
(66.5,560,l),
(98,643.3,ls),
(105,662,o),
(114.8,682.5,o),
(119.7,702.1,c)
);
}
);
width = 580;
}
);
unicode = 1513;
},
{
color = 5;
glyphname = "tav-hb";
lastChange = "2021-05-17 22:08:15 +0000";
layers = (
{
anchors = (
{
name = center;
pos = (316,330);
}
);
layerId = m01;
shapes = (
{
closed = 1;
nodes = (
(37,-27,o),
(34,1,o),
(34,88,cs),
(34,106,o),
(38,125,o),
(74,143,cs),
(90,151,o),
(97,157,o),
(97,168,cs),
(94,256,o),
(83,307,o),
(83,325,cs),
(84,358,o),
(95,391,o),
(108,412,cs),
(128,444,o),
(137,454,o),
(137,462,cs),
(137,467,o),
(131,472,o),
(122,475,cs),
(99,483,o),
(78,515,o),
(78,545,cs),
(78,610,o),
(92,671,o),
(94,676,cs),
(98,685,o),
(132,693,o),
(139,693,cs),
(144,693,o),
(147,688,o),
(147,679,cs),
(147,643,o),
(189,627,o),
(235,627,cs),
(255,627,o),
(301,630,o),
(341,630,cs),
(496,630,o),
(534,472,o),
(534,347,cs),
(534,223,o),
(471,23,o),
(363,23,cs),
(327,23,o),
(311,36,o),
(311,80,cs),
(311,88,o),
(317,102,o),
(342,114,cs),
(464,174,o),
(473,255,o),
(473,330,cs),
(473,452,o),
(395,457,o),
(291,457,cs),
(269,457,o),
(244,461,o),
(230,461,cs),
(205,461,o),
(158,392,o),
(158,343,cs),
(158,280,o),
(222,139,o),
(221,82,cs),
(221,48,o),
(211,14,o),
(197,0,cs),
(181,-16,o),
(118,-27,o),
(61,-27,cs)
);
}
);
width = 580;
},
{
anchors = (
{
name = center;
pos = (302,319);
}
);
associatedMasterId = m01;
layerId = "50D32998-DE20-41E3-A896-FD8676242B5D";
name = "May 13, 21, 11:00";
shapes = (
{
closed = 1;
nodes = (
(133.7,462.7,o),
(115.5,468.3,o),
(105,478.1,cs),
(84,497,o),
(78.4,525.7,o),
(78.4,554.4,cs),
(78.4,578.9,o),
(82.6,604.1,o),
(85.4,625.1,cs),
(87.5,640.5,o),
(89.6,655.9,o),
(90.3,670.6,cs),
(90.3,671.3,o),
(90.3,671.3,o),
(90.3,672,cs),
(90.3,673.4,o),
(90.3,676.9,o),
(90.3,679,cs),
(90.3,682.5,o),
(90.3,684.6,o),
(91.7,686,cs),
(93.8,687.4,o),
(116,687,o),
(119,687,cs),
(121,687,o),
(130,696,o),
(140,688.1,cs),
(144,685,o),
(149.8,657.3,o),
(161.7,646.8,cs),
(182.7,627.9,o),
(218.4,627.2,o),
(245,627.2,cs),
(254.8,627.2,o),
(263.9,627.2,o),
(273.7,627.2,cs),
(310.1,627.2,o),
(346.5,626.5,o),
(382.9,620.2,cs),
(415.1,615.3,o),
(445.2,604.8,o),
(467.6,580.3,cs),
(478.8,568.4,o),
(485.1,553.7,o),
(492.1,538.3,cs),
(503.3,515.2,o),
(512.4,491.4,o),
(518.7,466.9,cs),
(528.5,427,o),
(533.4,386.4,o),
(533.4,346.5,cs),
(533.4,277.2,o),
(519.4,208.6,o),
(491.4,144.9,cs),
(469,93.8,o),
(423.5,23.1,o),
(362.6,23.1,cs),
(352.1,23.1,o),
(341.6,25.2,o),
(330.4,29.4,cs),
(313.6,36.4,o),
(312.9,60.9,o),
(312.2,77,cs),
(312.2,79.8,o),
(311.5,82.6,o),
(311.5,84.7,cs),
(311.5,88.9,o),
(312.2,92.4,o),
(315.7,95.9,cs),
(337.4,116.2,o),
(366.8,123.9,o),
(390.6,140,cs),
(417.9,158.2,o),
(439.6,187.6,o),
(452.9,217,cs),
(469,252.7,o),
(473.2,291.2,o),
(473.2,329.7,cs),
(473.2,331.8,o),
(473.2,333.9,o),
(473.2,336.7,cs),
(473.2,364.7,o),
(469.7,393.4,o),
(450.8,415.8,cs),
(415.8,458.5,o),
(364.7,462,o),
(313.6,462,cs),
(303.1,462,o),
(291.9,462,o),
(280.7,462,cs),
(268.1,462,o),
(252.7,464.1,o),
(238.7,464.1,cs),
(232.4,464.1,o),
(226.1,464.1,o),
(220.5,462.7,cs),
(212.1,460.6,o),
(204.4,447.3,o),
(199.5,440.3,cs),
(180.6,416.5,o),
(163.8,392,o),
(158.9,361.9,cs),
(158.2,355.6,o),
(158.2,349.3,o),
(158.2,343,cs),
(158.2,314.3,o),
(166.6,287,o),
(175,259.7,cs),
(183.4,235.2,o),
(188.3,210,o),
(196,185.5,cs),
(207.2,151.2,o),
(221.2,118.3,o),
(221.2,81.9,cs),
(221.2,77,o),
(221.2,72.8,o),
(220.5,67.9,cs),
(218.4,43.4,o),
(212.8,15.4,o),
(194.6,-2.8,cs),
(187.6,-9.8,o),
(172.9,-12.6,o),
(163.1,-14.7,cs),
(136.5,-21.7,o),
(109.9,-26.6,o),
(82.6,-26.6,cs),
(77.7,-26.6,o),
(70,-27.3,o),
(63.7,-27.3,cs),
(58.1,-27.3,o),
(53.2,-26.6,o),
(49.7,-24.5,cs),
(42,-20.3,o),
(38.5,-3.5,o),
(37.1,4.9,cs),
(35,16.8,o),
(35,29.4,o),
(35,41.3,cs),
(35,51.1,o),
(35,60.2,o),
(35,70,cs),
(35,77,o),
(34.3,84,o),
(34.3,91.7,cs),
(34.3,96.6,o),
(34.3,100.8,o),
(35.7,105,cs),
(39.9,123.2,o),
(58.8,134.4,o),
(74.2,142.8,cs),
(79.8,145.6,o),
(93.1,149.8,o),
(95.2,156.8,cs),
(95.9,160.3,o),
(96.6,163.8,o),
(96.6,168,cs),
(96.6,177.1,o),
(94.5,186.9,o),
(94.5,195.3,cs),
(93.8,221.9,o),
(93.8,247.8,o),
(91,274.4,cs),
(89.6,291.2,o),
(83.3,307.3,o),
(83.3,324.8,cs),
(83.3,374.5,o),
(113.4,424.2,o),
(147,459.2,c)
);
}
);
width = 580;
}
);
unicode = 1514;
},
{
color = 5;
glyphname = "yodhiriq-hb";
lastChange = "2021-05-17 22:08:15 +0000";
layers = (
{
layerId = m01;
shapes = (
{
ref = "yod-hb";
},
{
closed = 1;
nodes = (
(80,162,o),
(95,177,o),
(95,197,cs),
(95,217,o),
(80,232,o),
(60,232,cs),
(40,232,o),
(25,217,o),
(25,197,cs),
(25,177,o),
(40,162,o),
(60,162,cs)
);
}
);
width = 270;
},
{
associatedMasterId = m01;
layerId = "143AD760-3ED5-4471-B105-A28000F49672";
name = "May 13, 21, 11:45";
shapes = (
{
closed = 1;
nodes = (
(97.3,688.1,l),
(98,687.4,l)
);
},
{
closed = 1;
nodes = (
(97.3,687.4,l),
(96.6,682.5,o),
(95.2,677.6,o),
(95.9,672.7,cs),
(97.3,664.3,o),
(100.1,651.7,o),
(105,644.7,cs),
(126.7,611.8,o),
(175,604.1,o),
(207.2,586.6,cs),
(231,573.3,o),
(251.3,551.6,o),
(256.2,524.3,cs),
(258.3,511,o),
(257.6,497.7,o),
(256.9,484.4,cs),
(252,412.3,o),
(224,343,o),
(179.2,287,cs),
(169.4,274.4,o),
(158.9,262.5,o),
(147.7,252,cs),
(140.7,245,o),
(133.7,238.7,o),
(123.2,242.9,cs),
(118.3,245,o),
(112.7,252.7,o),
(109.2,256.9,cs),
(105,260.4,o),
(98.7,265.3,o),
(97.3,270.2,cs),
(95.9,275.1,o),
(102.2,279.3,o),
(105,282.1,cs),
(113.4,290.5,o),
(121.8,300.3,o),
(130.2,310.1,cs),
(153.3,338.8,o),
(185.5,383.6,o),
(169.4,424.2,cs),
(165.2,434,o),
(144.2,441,o),
(135.1,445.2,cs),
(105.7,457.8,o),
(72.8,467.6,o),
(47.6,488.6,cs),
(2.1,526.4,o),
(21.7,598.5,o),
(39.9,645.4,cs),
(44.1,657.3,o),
(51.1,669.2,o),
(54.6,681.8,c)
);
},
{
closed = 1;
nodes = (
(98.7,215.6,o),
(123.9,163.1,o),
(89.6,139.3,cs),
(84.7,135.8,o),
(78.4,133.7,o),
(72.8,133,cs),
(25.9,124.6,o),
(11.9,200.2,o),
(59.5,208.6,cs)
);
}
);
width = 270;
}
);
unicode = 64285;
},
{
glyphname = "shindot-hb";
lastChange = "2021-05-17 22:08:15 +0000";
layers = (
{
anchors = (
{
name = _topright;
pos = (0,415);
}
);
layerId = m01;
shapes = (
{
closed = 1;
nodes = (
(25,528,o),
(45,548,o),
(45,573,cs),
(45,598,o),
(25,618,o),
(0,618,cs),
(-25,618,o),
(-45,598,o),
(-45,573,cs),
(-45,548,o),
(-25,528,o),
(0,528,cs)
);
}
);
width = 0;
}
);
unicode = 1473;
},
{
glyphname = "patah-hb";
lastChange = "2021-05-17 22:08:15 +0000";
layers = (
{
anchors = (
{
name = _bottom;
}
);
layerId = m01;
shapes = (
{
closed = 1;
nodes = (
(-117,-156,o),
(-75,-149,o),
(-1,-149,cs),
(68,-149,o),
(123,-156,o),
(143,-156,cs),
(160,-156,o),
(171,-141,o),
(171,-118,cs),
(171,-96,o),
(160,-80,o),
(143,-80,cs),
(123,-80,o),
(68,-86,o),
(-1,-86,cs),
(-75,-86,o),
(-117,-80,o),
(-139,-80,cs),
(-156,-80,o),
(-167,-96,o),
(-167,-118,cs),
(-167,-141,o),
(-156,-156,o),
(-139,-156,cs)
);
}
);
width = 0;
}
);
unicode = 1463;
},
{
glyphname = "qamats-hb";
lastChange = "2021-05-17 22:08:15 +0000";
layers = (
{
anchors = (
{
name = _bottom;
}
);
layerId = m01;
shapes = (
{
closed = 1;
nodes = (
(-109,-158,o),
(-90,-148,o),
(-53,-148,cs),
(-29,-148,o),
(-19,-170,o),
(-19,-189,cs),
(-19,-221,o),
(-51,-252,o),
(-51,-285,cs),
(-51,-309,o),
(-32,-330,o),
(-2,-330,cs),
(28,-330,o),
(50,-309,o),
(50,-285,cs),
(50,-252,o),
(19,-221,o),
(19,-189,cs),
(19,-170,o),
(28,-148,o),
(54,-148,cs),
(92,-148,o),
(113,-156,o),
(151,-156,cs),
(168,-156,o),
(182,-141,o),
(182,-117,cs),
(182,-93,o),
(168,-82,o),
(151,-82,cs),
(113,-82,o),
(45,-93,o),
(-2,-93,cs),
(-42,-93,o),
(-115,-82,o),
(-147,-82,cs),
(-164,-82,o),
(-178,-95,o),
(-178,-119,cs),
(-178,-143,o),
(-164,-158,o),
(-147,-158,cs)
);
}
);
width = 0;
}
);
unicode = 1464;
},
{
glyphname = "holam-hb";
lastChange = "2021-05-17 22:08:15 +0000";
layers = (
{
anchors = (
{
name = _topleft;
pos = (0,415);
}
);
layerId = m01;
shapes = (
{
closed = 1;
nodes = (
(25,493,o),
(45,513,o),
(45,538,cs),
(45,563,o),
(25,583,o),
(0,583,cs),
(-25,583,o),
(-45,563,o),
(-45,538,cs),
(-45,513,o),
(-25,493,o),
(0,493,cs)
);
}
);
width = 0;
}
);
unicode = 1465;
},
{
glyphname = "dagesh-hb";
lastChange = "2021-05-17 22:08:15 +0000";
layers = (
{
anchors = (
{
name = _center;
pos = (0,317);
}
);
layerId = m01;
shapes = (
{
closed = 1;
nodes = (
(25,273,o),
(45,293,o),
(45,318,cs),
(45,343,o),
(25,363,o),
(0,363,cs),
(-25,363,o),
(-45,343,o),
(-45,318,cs),
(-45,293,o),
(-25,273,o),
(0,273,cs)
);
}
);
width = 0;
}
);
unicode = 1468;
},
{
glyphname = "sindot-hb";
lastChange = "2021-05-17 22:08:15 +0000";
layers = (
{
anchors = (
{
name = _topleft;
pos = (0,415);
}
);
layerId = m01;
shapes = (
{
closed = 1;
nodes = (
(25,544,o),
(45,564,o),
(45,589,cs),
(45,614,o),
(25,634,o),
(0,634,cs),
(-25,634,o),
(-45,614,o),
(-45,589,cs),
(-45,564,o),
(-25,544,o),
(0,544,cs)
);
}
);
width = 0;
}
);
unicode = 1474;
},
